<?xml version="1.0" encoding="UTF-8" standalone="no"?>
<svg width="20px" height="20px" viewBox="0 0 20 20" version="1.1" xmlns="http://www.w3.org/2000/svg" xmlns:xlink="http://www.w3.org/1999/xlink" xmlns:sketch="http://www.bohemiancoding.com/sketch/ns">
    <!-- Generator: Sketch 3.4 (15575) - http://www.bohemiancoding.com/sketch -->
    <title>linkedin-grey</title>
    <desc>Created with Sketch.</desc>
    <defs></defs>
    <g id="Page-1" stroke="none" stroke-width="1" fill="none" fill-rule="evenodd" sketch:type="MSPage">
        <g id="linkedin-grey" sketch:type="MSArtboardGroup" fill="#495B5D">
            <g id="" sketch:type="MSLayerGroup" transform="translate(3.000000, 2.000000)">
                <path d="M3.44643229,4.86606173 L0.500000202,4.86606173 L0.500000202,13.7142866 L3.44643229,13.7142866 L3.44643229,4.86606173 Z M3.63393251,2.13391562 C3.62500393,1.26784316 3.00000318,0.607128084 1.99107341,0.607128084 C0.991072216,0.607128084 0.330357143,1.26784316 0.330357143,2.13391562 C0.330357143,2.98213091 0.96428647,3.66070315 1.95535908,3.66070315 L1.97321624,3.66070315 C3.00000318,3.66070315 3.64286109,2.98213091 3.63393251,2.13391562 L3.63393251,2.13391562 Z M14.0446592,8.64285195 C14.0446592,5.928563 12.5982289,4.66070434 10.6607266,4.66070434 C9.07143899,4.66070434 8.37500959,5.54463397 7.99108056,6.15177755 L8.00893772,6.15177755 L8.00893772,4.86606173 L5.07143422,4.86606173 C5.07143422,4.86606173 5.10714855,5.69641986 5.07143422,13.7142866 L8.00893772,13.7142866 L8.00893772,8.77678068 C8.00893772,8.50892322 8.03572347,8.24999434 8.10715213,8.05356553 C8.3214381,7.52677919 8.80358153,6.98213568 9.6160825,6.98213568 C10.6785838,6.98213568 11.1071557,7.79463665 11.1071557,8.98213807 L11.1071557,13.7142866 L14.0446592,13.7142866 L14.0446592,8.64285195 Z" sketch:type="MSShapeGroup"></path>
            </g>
        </g>
    </g>
</svg>