<?xml version="1.0" encoding="UTF-8" standalone="no"?>
<svg width="20px" height="20px" viewBox="0 0 20 20" version="1.1" xmlns="http://www.w3.org/2000/svg" xmlns:xlink="http://www.w3.org/1999/xlink" xmlns:sketch="http://www.bohemiancoding.com/sketch/ns">
    <!-- Generator: Sketch 3.4 (15575) - http://www.bohemiancoding.com/sketch -->
    <title>twitter-grey</title>
    <desc>Created with Sketch.</desc>
    <defs></defs>
    <g id="Page-1" stroke="none" stroke-width="1" fill="none" fill-rule="evenodd" sketch:type="MSPage">
        <g id="twitter-grey" sketch:type="MSArtboardGroup" fill="#495B5D">
            <path d="M18.9621285,4.70276413 C18.3380299,4.98282691 17.6673985,5.1721722 16.9633876,5.25723946 C17.6819168,4.82148161 18.2337343,4.13133812 18.4935117,3.30910493 C17.8211431,3.7126565 17.0764314,4.00565202 16.2836978,4.16360717 C15.6489277,3.47923946 14.7445153,3.05158027 13.7436248,3.05158027 C11.8216321,3.05158027 10.2635263,4.62824395 10.2635263,6.5728 C10.2635263,6.84884484 10.2943,7.11754439 10.3536139,7.3752574 C7.46144234,7.22841435 4.89723431,5.82653094 3.18085474,3.69614529 C2.8813073,4.21621704 2.70969416,4.82110493 2.70969416,5.46642332 C2.70969416,6.68806457 3.32405182,7.76587623 4.25781095,8.39738296 C3.68738029,8.3791139 3.1507635,8.2206565 2.68158832,7.95691659 C2.68134015,7.97160717 2.6812781,7.98636054 2.6812781,8.00117668 C2.6812781,9.70729327 3.88083285,11.130522 5.4728146,11.4540287 C5.18077445,11.5344502 4.87334745,11.5774547 4.55599343,11.5774547 C4.33170511,11.5774547 4.11374526,11.5554188 3.90124526,11.5142978 C4.34411387,12.9132933 5.62928905,13.9313381 7.15202993,13.9598404 C5.96103723,14.9042439 4.46057007,15.4671318 2.83012117,15.4671318 C2.54924891,15.4671318 2.27222336,15.4504951 1.99997518,15.4179749 C3.54008832,16.4170601 5.3692635,16.9999749 7.33450073,16.9999749 C13.7354971,16.9999749 17.2357599,11.6343964 17.2357599,6.98112287 C17.2357599,6.82844126 17.2323474,6.67657578 17.2257088,6.52558924 C17.9055847,6.02912287 18.4955591,5.40891659 18.9621285,4.70276413" id="Fill-1" sketch:type="MSShapeGroup"></path>
        </g>
    </g>
</svg>