<?xml version="1.0" encoding="UTF-8" standalone="no"?>
<svg width="20px" height="20px" viewBox="0 0 20 20" version="1.1" xmlns="http://www.w3.org/2000/svg" xmlns:xlink="http://www.w3.org/1999/xlink" xmlns:sketch="http://www.bohemiancoding.com/sketch/ns">
    <!-- Generator: Sketch 3.4 (15575) - http://www.bohemiancoding.com/sketch -->
    <title>youtube-grey</title>
    <desc>Created with Sketch.</desc>
    <defs></defs>
    <g id="Page-1" stroke="none" stroke-width="1" fill="none" fill-rule="evenodd" sketch:type="MSPage">
        <g id="youtube-grey" sketch:type="MSArtboardGroup" fill="#495B5D">
            <path d="M8.00892857,13.0714286 L8.00892857,6.35714286 C8.00892857,6.35714286 13.4285714,9.51785714 13.4285714,9.71428571 L8.00892857,13.0714286 Z M18,9.71428571 C18,8.4375 18,7.08035714 17.7232143,5.83928571 C17.5267857,4.96428571 16.8303571,4.32142857 15.9910714,4.22321429 C14.0089286,4 12,4 10,4 C8,4 5.99107143,4 4.00892857,4.22321429 C3.16964286,4.32142857 2.48214286,4.96428571 2.28571429,5.83928571 C2,7.08035714 2,8.4375 2,9.71428571 C2,10.9910714 2,12.3482143 2.27678571,13.5892857 C2.47321429,14.4642857 3.16964286,15.1071429 4.00892857,15.2053571 C5.99107143,15.4285714 8,15.4285714 10,15.4285714 C12,15.4285714 14.0089286,15.4285714 15.9910714,15.2053571 C16.8303571,15.1071429 17.5267857,14.4642857 17.7142857,13.5892857 C18,12.3482143 18,10.9910714 18,9.71428571 L18,9.71428571 Z" id="" sketch:type="MSShapeGroup"></path>
        </g>
    </g>
</svg>