<?xml version="1.0" standalone="no"?>
<!DOCTYPE svg PUBLIC "-//W3C//DTD SVG 1.1//EN" "http://www.w3.org/Graphics/SVG/1.1/DTD/svg11.dtd" >
<svg xmlns="http://www.w3.org/2000/svg">
<metadata></metadata>
<defs>
<font id="co_textlight" horiz-adv-x="1024" >
<font-face units-per-em="2048" ascent="1638" descent="-410" />
<missing-glyph horiz-adv-x="512" />
<glyph unicode="&#xfb01;" horiz-adv-x="1267" d="M999 1012q68 0 68 -74v-938h-135v893h-553v-893h-135v893h-125q-29 0 -48.5 13.5t-19.5 45.5q0 23 7.5 38.5t11.5 21.5h174v108q0 113 34.5 187.5t93 120t135.5 63.5t161 18q111 0 175 -16t89 -31q18 -10 31.5 -24.5t13.5 -40.5q0 -18 -10.5 -36t-24.5 -28 q-41 29 -117.5 47.5t-158.5 18.5q-154 0 -220.5 -75t-66.5 -241v-71h620z" />
<glyph unicode="&#xfb02;" horiz-adv-x="1236" d="M901 1372q-10 4 -70.5 15.5t-146.5 11.5q-160 0 -232.5 -72t-72.5 -237v-78h266q29 0 48.5 -13.5t19.5 -46.5q0 -23 -7.5 -38t-11.5 -21h-315v-893h-135v893h-125q-29 0 -48.5 13.5t-19.5 45.5q0 23 7.5 38.5t11.5 21.5h174v86q0 119 36.5 198.5t98 126.5t141.5 66.5 t166 19.5q70 0 132.5 -8t109.5 -18t75.5 -19.5t32.5 -11.5v-1452h-135v1372z" />
<glyph unicode="&#xfb03;" horiz-adv-x="1970" d="M1702 1012q68 0 67 -74v-938h-135v893h-553v-893h-135v893h-567v-893h-135v893h-125q-29 0 -48.5 13.5t-19.5 45.5q0 23 7.5 38.5t11.5 21.5h174v135q0 94 28.5 162.5t77.5 112.5t118 65.5t148 21.5q106 0 156.5 -18t67.5 -27q20 -12 30.5 -26.5t10.5 -36.5 q0 -23 -14.5 -42.5t-24.5 -29.5q-29 25 -85.5 47.5t-131.5 22.5q-74 0 -122 -21.5t-76 -58.5t-38 -88t-10 -113v-106h567v108q0 113 35 187.5t93.5 120t135 63.5t160.5 18q111 0 175.5 -16t88.5 -31q18 -10 31.5 -24.5t13.5 -40.5q0 -18 -10 -36t-24 -28q-41 29 -118 47.5 t-159 18.5q-154 0 -220.5 -75t-66.5 -241v-71h621z" />
<glyph unicode="&#xfb04;" horiz-adv-x="1939" d="M1604 1372q-10 4 -70.5 15.5t-147.5 11.5q-160 0 -232.5 -72t-72.5 -237v-78h267q29 0 48 -13.5t19 -46.5q0 -23 -7 -38t-11 -21h-316v-893h-135v893h-567v-893h-135v893h-125q-29 0 -48.5 13.5t-19.5 45.5q0 23 7.5 38.5t11.5 21.5h174v135q0 94 28.5 162.5t77.5 112.5 t118 65.5t148 21.5q106 0 156.5 -18t67.5 -27q20 -12 30.5 -26.5t10.5 -36.5q0 -23 -14.5 -42.5t-24.5 -29.5q-29 25 -85.5 47.5t-131.5 22.5q-74 0 -122 -21.5t-76 -58.5t-38 -88t-10 -113v-106h567v86q0 119 37 198.5t98.5 126.5t141.5 66.5t166 19.5q70 0 132 -8t109 -18 t76 -19.5t33 -11.5v-1452h-135v1372z" />
<glyph unicode="&#xd;" horiz-adv-x="512" />
<glyph horiz-adv-x="0" />
<glyph horiz-adv-x="0" />
<glyph unicode=" "  horiz-adv-x="512" />
<glyph unicode="&#x09;" horiz-adv-x="512" />
<glyph unicode="&#xa0;" horiz-adv-x="512" />
<glyph unicode="!" horiz-adv-x="493" d="M178 1331q0 33 15.5 53.5t56.5 20.5q20 0 36.5 -5t26.5 -11v-955h-135v897zM367 90q0 -49 -35 -84t-84 -35q-51 0 -87 35t-36 84q0 51 36 87t87 36q49 0 84 -36t35 -87z" />
<glyph unicode="&#x22;" horiz-adv-x="958" d="M211 956v480q0 33 17.5 53t58.5 20q20 0 37.5 -5t27.5 -11v-537h-141zM606 956v480q0 33 17.5 53t58.5 20q20 0 37.5 -5t28.5 -11v-537h-142z" />
<glyph unicode="#" horiz-adv-x="1607" d="M549 485h434l78 461h-434zM305 946q-41 0 -58.5 18.5t-17.5 47.5q0 35 17 57h286l52 299q12 74 75 74q14 0 27.5 -4t24.5 -8l-62 -361h434l52 299q12 74 75 74q14 0 27.5 -4t24.5 -8l-62 -361h203q41 0 58.5 -18.5t17.5 -46.5q0 -35 -17 -58h-284l-78 -461h203 q41 0 58 -18t17 -47q0 -35 -16 -58h-285l-61 -362h-117l62 362h-435l-61 -362h-117l62 362h-205q-41 0 -58.5 18.5t-17.5 47.5q0 35 16 57h287l78 461h-205z" />
<glyph unicode="$" horiz-adv-x="1335" d="M1075 1319q31 -23 38 -41t7 -35q0 -23 -12 -44t-31 -38q-35 43 -128 91t-242 61v-537l86 -20q195 -45 295 -129t100 -236q0 -160 -115 -267.5t-366 -129.5v-223h-113v223q-178 12 -299 62t-180 96l63 100q20 -14 56 -36.5t87.5 -44t119 -40t153.5 -25.5v553l-72 19 q-78 18 -147.5 48t-123.5 74t-86 104.5t-32 139.5q0 72 23.5 135.5t78 113.5t142.5 84t217 46v166q0 20 15.5 34.5t43.5 14.5q20 0 34.5 -4t19.5 -6v-207q82 -4 145 -17t109.5 -29.5t74 -32t39.5 -23.5zM1036 369q0 68 -23.5 112.5t-66.5 75.5t-103.5 50.5t-135.5 33.5v-537 q154 16 241.5 79t87.5 186zM594 1313q-160 -8 -242 -69.5t-82 -184.5q0 -117 89.5 -176.5t234.5 -87.5v518z" />
<glyph unicode="%" horiz-adv-x="1923" d="M881 1122q0 -80 -32 -150.5t-85 -122.5t-125 -82t-154 -30t-153.5 30t-125.5 82t-85 122.5t-31 150.5q0 82 31 153t85 123t125.5 81.5t153.5 29.5t154 -29.5t125 -81.5t85 -123t32 -153zM764 1122q0 57 -21.5 108.5t-59.5 90.5t-89 60.5t-109 21.5q-57 0 -107 -21.5 t-88 -60.5t-59.5 -90t-21.5 -109q0 -57 21.5 -107t59.5 -88t88 -59.5t107 -21.5t108.5 21.5t89.5 59.5t59.5 88t21.5 107zM1833 362q0 -80 -32 -150.5t-85 -122.5t-124.5 -82t-153.5 -30t-154 30t-126 82t-85 123t-31 150q0 82 31 153t85 123t126 82t154 30t153.5 -30 t124.5 -82t85 -123t32 -153zM1716 362q0 57 -21.5 108.5t-59.5 90.5t-89 60.5t-108 21.5t-107.5 -21.5t-88.5 -60.5t-59.5 -90t-21.5 -109q0 -57 21.5 -107t59.5 -88t88 -59.5t108 -21.5q57 0 108 21.5t89 59.5t59.5 88t21.5 107zM1311 1456q10 20 25.5 36.5t54.5 16.5 q27 0 43 -10t26 -20l-858 -1479h-137z" />
<glyph unicode="&#x26;" horiz-adv-x="1527" d="M1130 664h-471q-172 0 -261 -75t-89 -222q0 -160 123 -224.5t356 -64.5q125 0 217.5 8t124.5 14v564zM1266 664v-674q-18 -2 -62.5 -6t-108 -9.5t-143.5 -8.5t-170 -3q-180 0 -298.5 31t-189.5 85t-100.5 125.5t-29.5 153.5q0 125 58.5 220.5t205.5 146.5 q-129 53 -179 140t-50 198q0 80 31.5 149.5t92 119.5t150.5 80t207 30q80 0 138.5 -8.5t99 -20.5t65.5 -24.5t37 -20.5q25 -16 34 -32.5t9 -37.5q0 -39 -37 -71q-39 33 -123 68.5t-217 35.5q-166 0 -259 -65.5t-93 -212.5q0 -78 28.5 -129.5t79 -82t121 -43t156.5 -12.5h639 q29 0 48 -14t19 -47q0 -23 -7 -39t-11 -22h-141z" />
<glyph unicode="'" horiz-adv-x="569" d="M213 956v480q0 33 17.5 53t58.5 20q20 0 37.5 -5t27.5 -11v-537h-141z" />
<glyph unicode="(" horiz-adv-x="751" d="M659 -270q-104 25 -197 93t-163 181t-109.5 267.5t-39.5 349.5t39.5 348t109.5 266t163 181.5t197 92.5v-123q-188 -74 -275 -274.5t-87 -490.5q0 -293 87 -494t275 -274v-123z" />
<glyph unicode=")" horiz-adv-x="751" d="M92 -147q186 74 274.5 274.5t88.5 493.5q0 291 -88 491.5t-275 273.5v123q104 -25 197.5 -93t163 -181t109.5 -266.5t40 -347.5q0 -195 -40 -349.5t-109.5 -267.5t-162.5 -181.5t-198 -92.5v123z" />
<glyph unicode="*" horiz-adv-x="1124" d="M496 1440q-2 31 15 50t56 19q18 0 34.5 -5t25.5 -9l-11 -377l271 113q16 6 26.5 9t24.5 3q23 0 45.5 -19.5t22.5 -72.5v-8l-351 -111l228 -311l-103 -70l-217 330l-217 -330l-102 70l227 311l-350 111v8q0 53 22.5 72.5t44.5 19.5q14 0 24.5 -3t27.5 -9l268 -113z" />
<glyph unicode="+" horiz-adv-x="1335" d="M602 1143q0 31 16.5 50t55.5 19q18 0 34.5 -5t24.5 -9v-434h377q29 0 48.5 -14.5t19.5 -47.5q0 -23 -7.5 -39t-11.5 -22h-426v-451h-131v451h-377q-29 0 -48 14.5t-19 46.5q0 23 7 39.5t11 22.5h426v379z" />
<glyph unicode="," horiz-adv-x="569" d="M129 -297q4 6 26.5 33.5t48 66.5t49 85t30.5 89q-59 4 -90 36t-31 83q0 49 32.5 83t86.5 34q49 0 89 -38t40 -126q0 -78 -30 -148.5t-67 -126t-69.5 -91t-38.5 -41.5z" />
<glyph unicode="-" horiz-adv-x="714" d="M197 481q-41 0 -57.5 24.5t-16.5 55.5t12 66h383q43 0 58.5 -24.5t15.5 -55.5q0 -25 -10 -66h-385z" />
<glyph unicode="." horiz-adv-x="569" d="M406 90q0 -49 -35 -84t-84 -35q-51 0 -87 35t-36 84q0 51 36 87t87 36q49 0 84 -36t35 -87z" />
<glyph unicode="/" horiz-adv-x="716" d="M182 -37h-141l481 1479q10 33 27.5 50t60.5 17q23 0 40.5 -8t25.5 -14z" />
<glyph unicode="0" horiz-adv-x="1335" d="M1208 684q0 -170 -37.5 -304t-108.5 -226.5t-170 -141.5t-224 -49q-123 0 -223.5 49t-171 141.5t-108.5 226.5t-38 304q0 168 38 302t108.5 227.5t171 142.5t223.5 49q125 0 224 -49t170 -142.5t108.5 -227.5t37.5 -302zM1059 684q0 121 -21.5 230.5t-69.5 192.5 t-122 132t-178 49t-178 -49t-122.5 -132t-70 -192.5t-21.5 -230.5t21.5 -230.5t70 -192.5t122 -132t178.5 -49q104 0 178 49t122 132t69.5 192.5t21.5 230.5z" />
<glyph unicode="1" horiz-adv-x="1335" d="M678 0v1217l-371 -273q-23 6 -44 24.5t-21 47.5q0 16 7 32.5t34 36.5l309 228q35 27 66.5 41t72.5 14q37 0 57.5 -6t30.5 -14v-1348h-141z" />
<glyph unicode="2" horiz-adv-x="1335" d="M881 557q-37 -41 -109 -105.5t-151.5 -130t-152.5 -122t-110 -80.5h742v-119h-922v129q41 29 105.5 77t135 104.5t139.5 114.5t122 110q49 47 96 97t84 107.5t59.5 120t22.5 133.5q0 57 -16.5 110.5t-55.5 94.5t-103.5 66.5t-160.5 25.5q-92 0 -154.5 -27.5t-101.5 -62.5 t-57.5 -68.5t-22.5 -46.5q-35 6 -59.5 24.5t-24.5 49.5q0 25 9.5 46.5t25.5 43.5q10 12 38 39t75 52.5t114.5 45t157.5 19.5q125 0 216 -31t150.5 -86t88.5 -131t29 -164q0 -70 -18.5 -131t-48.5 -115.5t-67.5 -101.5t-74.5 -88z" />
<glyph unicode="3" horiz-adv-x="1335" d="M571 766q166 0 261.5 70.5t95.5 199.5t-88 192.5t-250 63.5q-88 0 -151.5 -23.5t-104.5 -54t-63.5 -62.5t-28.5 -46q-35 4 -58.5 24.5t-23.5 49.5q0 43 37 86q12 14 40.5 37.5t75.5 46t117 39t162 16.5q135 0 227 -32t148.5 -83t80 -113.5t23.5 -123.5 q0 -70 -22.5 -126.5t-59.5 -99.5t-83 -73.5t-93 -48.5q154 -39 220.5 -132.5t66.5 -212.5q0 -86 -33 -158.5t-97.5 -125.5t-157.5 -83t-214 -30q-86 0 -161 12.5t-135 32t-106 41t-75 39.5l55 107q31 -16 72 -36t93 -37.5t112.5 -28.5t132.5 -11q172 0 268 69.5t96 217.5 q0 141 -103.5 204.5t-283.5 63.5h-96q-4 4 -12.5 22.5t-8.5 40.5q0 66 78 66h47z" />
<glyph unicode="4" horiz-adv-x="1335" d="M1116 455q31 0 50.5 -14.5t19.5 -45.5q0 -23 -7.5 -38t-11.5 -21h-178v-336h-139v336h-414q-84 0 -139 12t-89 36t-47.5 58.5t-13.5 81.5q0 117 62.5 237t157.5 232q63 76 129.5 144.5t133 120t130 81t119.5 29.5q55 0 79.5 -11t30.5 -16v-886h127zM850 455v800 q-88 -39 -181.5 -117.5t-185.5 -189.5q-35 -41 -69.5 -91t-63 -103.5t-47 -107.5t-18.5 -101q0 -31 12 -49.5t33.5 -27.5t49.5 -11t58 -2h412z" />
<glyph unicode="5" horiz-adv-x="1335" d="M387 1245l-14 -452q41 8 103.5 15t131.5 7q145 0 242.5 -37t156 -96t82 -135t23.5 -154q0 -92 -32.5 -171t-98.5 -136t-167 -90t-239 -33q-78 0 -144 11.5t-120.5 27.5t-94.5 34.5t-62 33.5l55 106q76 -39 164 -67.5t215 -28.5q193 0 285 83t92 224q0 145 -95.5 229 t-310.5 84q-98 0 -174 -12t-141 -31l20 631q2 35 23.5 57.5t68.5 22.5h625q29 0 48.5 -14.5t19.5 -46.5q0 -23 -7.5 -39.5t-11.5 -22.5h-643z" />
<glyph unicode="6" horiz-adv-x="1335" d="M694 1358q16 23 33.5 35t52.5 12q29 0 48.5 -12.5t25.5 -22.5l-389 -528q31 23 95.5 41t129.5 18q117 0 207 -37t151.5 -98t94.5 -143t33 -174q0 -104 -38 -193.5t-105.5 -154t-161 -101.5t-201.5 -37q-111 0 -203 35t-158.5 97.5t-104.5 147.5t-38 187q0 127 54 241.5 t151 243.5zM1028 432q0 88 -26.5 155.5t-74.5 114t-113.5 70t-143.5 23.5q-80 0 -145.5 -27t-114 -75t-75 -114.5t-26.5 -146.5q0 -78 25.5 -144.5t74 -114.5t115 -75.5t146.5 -27.5q82 0 148.5 27.5t113.5 75.5t71.5 114.5t24.5 144.5z" />
<glyph unicode="7" horiz-adv-x="1335" d="M440 0q20 47 61.5 140t93.5 212t109.5 250t110.5 254t97 225.5t69 161.5h-772q-29 0 -48.5 15.5t-19.5 48.5q0 23 7.5 39t11.5 22h854q106 0 106 -78q0 -29 -12 -65.5t-35 -89.5t-61.5 -144.5t-86.5 -201t-99.5 -227.5t-98.5 -226.5t-86 -197.5t-59 -138h-142z" />
<glyph unicode="8" horiz-adv-x="1335" d="M668 -37q-133 0 -232.5 28.5t-164 81t-96.5 124t-32 157.5q0 45 10.5 94.5t39 95.5t77.5 85t129 65q-68 31 -111.5 73t-68 88t-35 92t-10.5 87q0 78 31 145.5t92 118t154.5 79t216.5 28.5t216 -28.5t154.5 -79t92 -118t30.5 -145.5q0 -41 -10 -87t-34.5 -92t-68.5 -88 t-112 -73q80 -27 129 -65.5t77.5 -84.5t39 -95.5t10.5 -94.5q0 -86 -32 -157.5t-96.5 -124t-163.5 -81t-232 -28.5zM291 356q0 -135 95 -207.5t282 -72.5q186 0 281 72.5t95 207.5t-95 209t-281 74t-281.5 -74t-95.5 -209zM668 745q178 0 266 79t88 200t-88 198.5t-266 77.5 t-266.5 -77.5t-88.5 -198.5t88.5 -200t266.5 -79z" />
<glyph unicode="9" horiz-adv-x="1335" d="M475 -16l393 532q-33 -23 -87 -41t-146 -18q-115 0 -204 36.5t-150.5 99t-93 145.5t-31.5 175q0 106 38.5 196.5t107.5 156t162 102.5t202 37q111 0 203 -36t158.5 -98.5t104 -149.5t37.5 -189q0 -68 -17 -130.5t-45 -120.5t-61.5 -111.5t-68.5 -102.5l-346 -483h-156z M299 930q0 -88 27.5 -156.5t77 -115t117 -71t147.5 -24.5q78 0 144.5 26.5t115.5 76t76.5 117t27.5 147.5t-27.5 147.5t-76.5 116.5t-116 76.5t-144 27.5q-84 0 -151.5 -27.5t-116 -76.5t-75 -116.5t-26.5 -147.5z" />
<glyph unicode=":" horiz-adv-x="569" d="M406 889q0 -49 -35 -84t-84 -35q-51 0 -87 35t-36 84q0 51 36 87t87 36q49 0 84 -36t35 -87zM406 90q0 -49 -35 -84t-84 -35q-51 0 -87 35t-36 84q0 51 36 87t87 36q49 0 84 -36t35 -87z" />
<glyph unicode=";" horiz-adv-x="569" d="M406 889q0 -49 -35 -84t-84 -35q-51 0 -87 35t-36 84q0 51 36 87t87 36q49 0 84 -36t35 -87zM129 -297q4 6 26.5 33.5t48 66.5t49 85t30.5 89q-59 4 -90 36t-31 83q0 49 32.5 83t86.5 34q49 0 89 -38t40 -126q0 -78 -30 -148.5t-67 -126t-69.5 -91t-38.5 -41.5z" />
<glyph unicode="&#x3c;" horiz-adv-x="1337" d="M244 596q-55 23 -70.5 48.5t-15.5 57.5q0 29 12 51.5t23 32.5l985 400v-139l-889 -345l889 -346v-139z" />
<glyph unicode="=" horiz-adv-x="1335" d="M225 909q-29 0 -48 14.5t-19 47.5q0 23 7 39t11 22h934q29 0 48.5 -14t19.5 -47q0 -23 -7.5 -39.5t-11.5 -22.5h-934zM225 371q-29 0 -48 14t-19 47q0 23 7 39t11 23h934q29 0 48.5 -14.5t19.5 -47.5q0 -23 -7.5 -39t-11.5 -22h-934z" />
<glyph unicode="&#x3e;" horiz-adv-x="1337" d="M1092 809q55 -23 70.5 -48.5t15.5 -58.5q0 -29 -12.5 -51t-22.5 -33l-985 -399v139l889 344l-889 347v139z" />
<glyph unicode="?" horiz-adv-x="1142" d="M516 1327q-88 0 -150.5 -24.5t-104.5 -58.5t-63.5 -67.5t-27.5 -52.5q-31 4 -55.5 23.5t-24.5 48.5q0 25 10.5 46.5t26.5 43.5q8 12 35.5 38t76 52.5t119 46t166.5 19.5q135 0 226.5 -35t146.5 -91t78.5 -127t23.5 -140q0 -80 -23.5 -142.5t-61 -112t-87 -88t-98.5 -69.5 t-82 -57.5t-51 -53t-26.5 -57.5t-8.5 -70h-137q0 94 34 166t140 137q137 84 196.5 161t59.5 181q0 57 -18.5 108.5t-58.5 90.5t-104.5 61.5t-156.5 22.5zM614 90q0 -49 -34.5 -84t-83.5 -35q-51 0 -87 35t-36 84q0 51 35.5 87t87.5 36q49 0 83.5 -36t34.5 -87z" />
<glyph unicode="@" horiz-adv-x="2082" d="M1745 162q2 8 11 38.5t19.5 80t18.5 114t8 142.5q0 156 -52 298t-150.5 249.5t-238.5 171t-317 63.5q-164 0 -304 -60.5t-243.5 -170t-163 -259t-59.5 -327.5q0 -176 59.5 -322.5t164 -251t244 -163t298.5 -58.5q129 0 232.5 15.5t171.5 37.5l41 -112 q-74 -29 -187.5 -47.5t-257.5 -18.5q-186 0 -350 68.5t-286.5 190.5t-193.5 291t-71 370q0 203 72 375t194.5 297.5t287.5 196.5t351 71q203 0 369 -69.5t284 -192.5t182.5 -289t64.5 -356q0 -86 -11.5 -162t-26 -137.5t-29.5 -105.5t-24 -67q-23 -4 -71.5 -9t-134.5 -10 t-211 -9t-299 -4q-248 0 -378 65.5t-130 225.5q0 141 91 221t294 80q41 0 85 -2.5t82 -5.5t67.5 -7t41.5 -6v8q0 82 -23.5 135.5t-65.5 84t-99.5 42t-124.5 11.5q-72 0 -131.5 -13.5t-114.5 -42.5q-10 10 -16 28.5t-6 35.5q0 43 61 72.5t215 29.5q117 0 199 -28.5t133 -77.5 t73.5 -117t22.5 -143v-484q14 0 59.5 1t97.5 4.5t101 6.5t74 7zM1290 494q-35 6 -97.5 13t-150.5 7q-147 0 -216.5 -42t-69.5 -153q0 -104 95 -142t282 -38h157v355z" />
<glyph unicode="A" horiz-adv-x="1458" d="M51 0q57 162 124 334t134.5 340t134 326.5t125.5 293.5q37 82 70 115t90 33q45 0 70.5 -18.5t40.5 -34.5q35 -63 86 -179t109.5 -255.5t118.5 -289t111.5 -282.5t89.5 -235.5t52 -147.5h-158q-10 25 -28.5 78t-41 116.5t-46 127t-41.5 108.5h-744q-51 -131 -94 -249 t-66 -181h-137zM723 1317q-35 -72 -74 -160t-81 -187.5t-86 -206t-87 -212.5h652q-37 100 -82 215t-90.5 220.5t-85 193.5t-66.5 137z" />
<glyph unicode="B" horiz-adv-x="1312" d="M1190 385q0 -61 -20.5 -129t-73 -125t-142.5 -94t-227 -37h-522v1323q0 37 22.5 59.5t65.5 22.5h383q119 0 203 -29.5t138 -78t78.5 -112t24.5 -130.5q0 -66 -18.5 -119t-46 -93t-62.5 -65.5t-67 -38.5q70 -20 120 -57t82.5 -84t47 -101.5t14.5 -111.5zM1038 387 q0 59 -18.5 110.5t-57 88.5t-99 58.5t-144.5 21.5h-375v-545h369q166 0 245.5 68.5t79.5 197.5zM971 1047q0 238 -320 237h-307v-498h326q164 0 232.5 72t68.5 189z" />
<glyph unicode="C" horiz-adv-x="1370" d="M1227 1337q31 -23 41 -42t10 -38q0 -29 -21.5 -54t-42.5 -36q-20 25 -57 51.5t-86 48t-111.5 36t-134.5 14.5q-119 0 -220 -43t-176 -123t-118 -194.5t-43 -258.5q0 -147 45 -260.5t124 -190.5t184.5 -117t226.5 -40q70 0 129 11.5t106 26.5t83 32.5t59 32.5l61 -111 q-25 -16 -67.5 -36.5t-101 -39t-128 -31t-149.5 -12.5q-147 0 -278.5 49t-230 143.5t-156.5 230.5t-58 310t57 312.5t154.5 234.5t227.5 147.5t275 51.5q76 0 140.5 -11.5t116 -28t87.5 -35t52 -30.5z" />
<glyph unicode="D" horiz-adv-x="1558" d="M1415 705q0 -160 -51 -290t-147.5 -222.5t-233.5 -142.5t-311 -50h-467v1323q0 37 22.5 59.5t69.5 22.5h354q59 0 126 -6t120 -17q117 -25 213 -82t163.5 -143t104.5 -199.5t37 -252.5zM1264 707q0 115 -30 209t-82 164.5t-127 116.5t-163 65q-53 10 -108.5 16t-114.5 6 h-293v-1163h313q145 0 258 43t190 119.5t117 185.5t40 238z" />
<glyph unicode="E" horiz-adv-x="1224" d="M983 791q29 0 48.5 -15.5t19.5 -48.5q0 -23 -7.5 -39t-11.5 -22h-686v-541h721v-125h-862v1323q0 37 22.5 59.5t65.5 22.5h719q29 0 48 -15.5t19 -48.5q0 -23 -7 -39t-11 -22h-715v-489h637z" />
<glyph unicode="F" horiz-adv-x="1116" d="M346 643v-643h-141v1323q0 37 22.5 59.5t65.5 22.5h653q29 0 48.5 -15.5t19.5 -48.5q0 -23 -7.5 -39t-11.5 -22h-649v-512h537q29 0 48 -15.5t19 -47.5q0 -23 -7 -39.5t-11 -22.5h-586z" />
<glyph unicode="G" horiz-adv-x="1513" d="M872 1317q-123 0 -228 -42t-183 -122t-122 -193.5t-44 -257.5q0 -164 50 -280.5t137 -191t206 -110.5t258 -36q111 0 173.5 8t82.5 12v510h-319q-29 0 -48.5 15.5t-19.5 48.5q0 23 7 39t12 22h417q43 0 65.5 -22.5t22.5 -59.5v-661q-18 -4 -128.5 -18.5t-282.5 -14.5 q-170 0 -314.5 47t-249 140.5t-163 231.5t-58.5 320q0 170 56.5 307.5t157 233.5t236.5 147.5t294 51.5q76 0 142.5 -11.5t118.5 -26.5t88 -31.5t52 -29.5q33 -23 42 -43t9 -36q0 -29 -21.5 -54.5t-41.5 -35.5q-23 25 -60.5 50t-90 45.5t-116 34t-137.5 13.5z" />
<glyph unicode="H" horiz-adv-x="1546" d="M1200 0v670h-854v-670h-141v1331q0 33 17.5 53.5t58.5 20.5q20 0 37.5 -5t27.5 -11v-596h854v538q0 33 17.5 53.5t56.5 20.5q23 0 40 -6t27 -13v-1386h-141z" />
<glyph unicode="I" horiz-adv-x="550" d="M205 0v1331q0 33 17.5 53.5t58.5 20.5q20 0 37.5 -5t27.5 -11v-1389h-141z" />
<glyph unicode="J" horiz-adv-x="1077" d="M741 1331q0 33 17.5 53.5t58.5 20.5q20 0 37.5 -5t28.5 -11v-938q0 -109 -21.5 -199t-73 -154.5t-135.5 -99.5t-209 -35q-96 0 -168.5 22.5t-122 51.5t-77 56.5t-35.5 37.5l84 88q18 -20 45 -44.5t64.5 -46.5t89 -36t116.5 -14q154 0 227.5 80t73.5 278v895z" />
<glyph unicode="K" horiz-adv-x="1312" d="M205 0v1331q0 33 17.5 53.5t58.5 20.5q20 0 37.5 -5t27.5 -11v-611q57 51 145.5 126t183.5 155t184 153.5t145 120.5q43 37 71.5 54.5t75.5 17.5q35 0 58.5 -18.5t31.5 -28.5q-12 -10 -64.5 -53t-127 -103.5t-160.5 -131.5t-166 -136.5t-142.5 -117.5t-91.5 -77 q113 -84 223.5 -176t212 -187t190.5 -190.5t161 -185.5h-180q-53 61 -134 144t-179.5 173.5t-209 181.5t-227.5 171v-670h-141z" />
<glyph unicode="L" horiz-adv-x="1097" d="M346 125h701v-125h-842v1331q0 33 17.5 53.5t58.5 20.5q20 0 37.5 -5t27.5 -11v-1264z" />
<glyph unicode="M" horiz-adv-x="1849" d="M930 453q14 29 47 96t75 154.5t88 183.5t87 181t72.5 149.5t43.5 87.5q8 14 19.5 31.5t29 32.5t41 25.5t54.5 10.5q41 0 61.5 -10.5t28.5 -16.5q20 -352 39.5 -690t38.5 -688h-135q-4 66 -9.5 166t-11.5 218t-14 245t-14.5 243.5t-12.5 215t-8 161.5q-12 -25 -46 -94.5 t-80 -161.5t-97 -197.5t-99.5 -202.5t-86 -176t-56.5 -118h-125q-18 37 -51 104.5t-74 152.5t-87 181.5t-92 189.5t-88 177t-75 145q-8 -145 -17 -304t-17.5 -320.5t-16.5 -320.5t-14 -304h-135q16 326 34.5 657.5t36.5 657.5q4 43 34 66.5t67 23.5q92 0 129 -66 q8 -14 38.5 -74.5t72.5 -147.5t91 -187.5t94.5 -193.5t83.5 -169.5t56 -113.5z" />
<glyph unicode="N" horiz-adv-x="1542" d="M1167 0q-53 82 -121.5 190.5t-144.5 226.5t-154.5 240.5t-152.5 234.5t-137.5 205t-110.5 154v-1251h-141v1323q0 35 28.5 58.5t75.5 23.5q41 0 72 -15.5t47 -27.5q33 -43 86 -119t118.5 -173t139.5 -208.5t147.5 -227.5t145.5 -228.5t131 -208.5v1134q0 33 17.5 53.5 t56.5 20.5q23 0 40 -6t27 -13v-1386h-170z" />
<glyph unicode="O" horiz-adv-x="1703" d="M1561 705q0 -158 -53.5 -293.5t-147.5 -234.5t-224 -156.5t-284 -57.5t-284 57.5t-224 156.5t-147.5 234.5t-53.5 293.5q0 156 53.5 290.5t147.5 234t224 156t284 56.5t284 -56.5t224 -156t147.5 -234t53.5 -290.5zM1409 705q0 131 -41 243.5t-114.5 194.5t-176 128 t-225.5 46t-225.5 -46t-176 -128t-114.5 -194.5t-41 -243.5q0 -133 41 -246t114.5 -195t176 -129t225.5 -47t225.5 47t176 129t114.5 195t41 246z" />
<glyph unicode="P" horiz-adv-x="1222" d="M1130 987q0 -94 -34.5 -176t-101 -142.5t-164 -95t-222.5 -34.5q-123 0 -183 10t-81 14v-563h-139v1323q0 37 22.5 59.5t69.5 22.5h350q45 0 92 -3t82 -11q154 -31 231.5 -140.5t77.5 -263.5zM979 985q0 106 -48 185t-165 102q-68 12 -160 12h-262v-598q23 -6 81 -16.5 t138 -10.5q221 0 318.5 86t97.5 240z" />
<glyph unicode="Q" horiz-adv-x="1703" d="M1561 705q0 -180 -71 -327t-187 -247l196 -256l-104 -76l-195 258q-156 -94 -348 -94q-154 0 -284 57.5t-224 156.5t-147.5 234.5t-53.5 293.5q0 156 53.5 290.5t147.5 234t224 156t284 56.5t284 -56.5t224 -156t147.5 -234t53.5 -290.5zM1409 705q0 131 -41 243.5 t-114.5 194.5t-176 128t-225.5 46t-225.5 -46t-176 -128t-114.5 -194.5t-41 -243.5q0 -133 41 -246t114.5 -195t176 -129t225.5 -47q74 0 143.5 17.5t126.5 52.5l-166 217q-18 25 -27 42t-9 34q0 27 20.5 46t71.5 19l213 -280q86 82 135 204t49 265z" />
<glyph unicode="R" horiz-adv-x="1286" d="M596 557q-111 0 -173.5 6t-76.5 10v-573h-139v1323q0 37 22.5 59.5t69.5 22.5h303q100 0 189 -16q80 -16 140 -55.5t99 -91.5t58.5 -116.5t19.5 -132.5q0 -137 -70.5 -240.5t-206.5 -154.5q59 -63 119 -143t113 -162t97 -159t73 -134h-172q-20 43 -58 110.5t-87.5 146.5 t-107.5 159t-118 145q-23 -4 -46 -4h-48zM954 987q0 104 -46 177t-150 102q-35 10 -79 14t-87 4h-246v-590q10 -4 69.5 -10t151.5 -6q201 0 294 86t93 223z" />
<glyph unicode="S" horiz-adv-x="1327" d="M647 1442q90 0 157.5 -11.5t117 -29t80 -34.5t47.5 -30q29 -25 39 -44t10 -36q0 -29 -21.5 -53t-38.5 -35q-20 25 -52 52.5t-79 50t-110.5 38t-147.5 15.5q-90 0 -155.5 -19.5t-107.5 -55.5t-61.5 -83t-19.5 -102q0 -61 20.5 -103t58.5 -73t94.5 -53.5t129.5 -42.5 l168 -45q199 -53 298.5 -140.5t99.5 -242.5q0 -86 -28 -159t-88.5 -127t-155.5 -85t-228 -31q-115 0 -204 19.5t-155.5 46t-109.5 55.5t-64 45l68 102q25 -18 64.5 -43.5t95 -49t128 -40t165.5 -16.5q180 0 274 65.5t94 200.5q0 68 -24.5 114t-65.5 76.5t-93 49t-108 33.5 l-178 47q-84 23 -157.5 54.5t-128 77.5t-85 108.5t-30.5 146.5q0 66 22.5 134t78.5 124.5t150.5 92.5t235.5 36z" />
<glyph unicode="T" horiz-adv-x="1228" d="M119 1280q-29 0 -48.5 15.5t-19.5 47.5q0 23 7.5 39.5t11.5 22.5h1040q29 0 48.5 -15.5t19.5 -48.5q0 -23 -7.5 -39t-11.5 -22h-491v-1280h-144v1280h-405z" />
<glyph unicode="U" horiz-adv-x="1585" d="M1253 1331q0 33 17.5 53.5t58.5 20.5q20 0 37.5 -5t28.5 -11v-760q0 -317 -145.5 -491.5t-458.5 -174.5t-457 174t-144 492v702q0 33 17.5 53.5t58.5 20.5q20 0 38 -5t28 -11v-750q0 -139 24.5 -241.5t78.5 -172t142.5 -103.5t215.5 -34q252 0 356 137t104 414v692z" />
<glyph unicode="V" horiz-adv-x="1384" d="M188 1384q39 -117 93.5 -270t119 -322t135 -344.5t144.5 -334.5q18 39 53 124t78 194.5t91 234.5t93 243.5t83 221t63 167.5q25 66 50.5 86.5t70.5 20.5q20 0 37.5 -5t29.5 -11q-20 -55 -56 -151.5t-82 -216.5t-99.5 -255t-108.5 -271.5t-109.5 -264.5t-103.5 -230h-186 q-55 109 -109.5 229.5t-105 241.5t-96.5 236.5t-82.5 214t-64.5 172t-42 112.5q-20 53 -27.5 82t-7.5 49q0 29 17.5 48.5t52.5 19.5t52 -9.5t17 -11.5z" />
<glyph unicode="W" horiz-adv-x="2043" d="M592 152q47 145 95 312t90 324.5t77 293t57 218.5q12 47 38 76t73 29q33 0 55.5 -6t32.5 -13q66 -281 140.5 -589t179.5 -647q59 164 113 327.5t100.5 314t85 281.5t67.5 230q16 51 40 76.5t65 25.5q33 0 47 -7t22 -14q-23 -82 -54.5 -189.5t-69.5 -227t-81 -248.5 t-86 -255t-86 -245t-82 -219h-180q-14 39 -36.5 117t-51.5 178t-59.5 217t-61 235.5t-58.5 231.5t-48 207q-23 -92 -51.5 -203t-61.5 -226.5t-64.5 -229t-62.5 -215t-55.5 -182.5t-40.5 -130h-174q-31 72 -70 175.5t-79 220t-80.5 234.5t-74.5 220t-58.5 178t-34.5 107 q-23 66 -36.5 114.5t-13.5 71.5q0 37 17.5 60.5t58.5 23.5q27 0 43.5 -7t20.5 -12q14 -57 38.5 -145t57.5 -192.5t69.5 -221t75.5 -234.5t78 -231.5t74 -209.5z" />
<glyph unicode="X" horiz-adv-x="1284" d="M997 1341q27 33 52.5 48.5t60.5 15.5q39 0 58.5 -15.5t23.5 -19.5q-33 -43 -84 -110.5t-114.5 -153.5t-136.5 -185.5t-150 -205.5q80 -104 156.5 -206.5t145 -197t126 -174.5t98.5 -137h-178q-35 53 -83 120.5t-104.5 145.5t-120 162t-129.5 170q-119 -168 -228 -324.5 t-183 -273.5h-156q43 66 99.5 147.5t119 173t131 188.5t136.5 193q-117 147 -217.5 280.5t-163.5 219.5q-51 68 -68.5 95.5t-17.5 45.5q0 20 14 41t49 21q23 0 36 -4t21 -8l433 -572z" />
<glyph unicode="Y" horiz-adv-x="1343" d="M1278 1376q-23 -39 -58.5 -99t-81.5 -133t-97.5 -154t-105.5 -160.5t-106.5 -154.5t-99.5 -134v-541h-143v545q-53 66 -122 159t-137.5 189t-128 182t-92.5 135q-33 47 -50 78t-17 53q0 23 14.5 43.5t52.5 20.5q23 0 35.5 -5t20.5 -9q31 -45 88 -133.5t128 -191.5 t145.5 -209.5t142.5 -188.5q74 98 144.5 207.5t129.5 207t103 171t67 102.5q18 23 37.5 36t52.5 13q35 0 54.5 -12.5t23.5 -16.5z" />
<glyph unicode="Z" horiz-adv-x="1247" d="M178 1280q-29 0 -48 15.5t-19 47.5q0 23 7 39.5t11 22.5h899q68 0 97.5 -23.5t29.5 -68.5q0 -43 -38 -94.5t-93 -122.5q-39 -51 -106.5 -135t-148.5 -182.5t-168 -202t-164 -194.5t-136 -159.5t-86 -97.5h934v-125h-1077v160q33 37 107.5 127t169.5 205.5t200.5 242.5 t197 239.5t159 195.5t89.5 110h-817z" />
<glyph unicode="[" horiz-adv-x="788" d="M205 -270v1710q0 31 17.5 50t56.5 19h399q4 -6 11 -21t7 -38q0 -33 -19.5 -47t-47.5 -14h-291v-1539h358v-120h-491z" />
<glyph unicode="\" horiz-adv-x="716" d="M41 1487q8 6 25.5 14t39.5 8q43 0 60.5 -17t28.5 -50l481 -1479h-141z" />
<glyph unicode="]" horiz-adv-x="788" d="M510 1509q39 0 56.5 -19.5t17.5 -49.5v-1710h-492v120h359v1539h-291q-29 0 -48.5 14t-19.5 47q0 23 7 38t12 21h399z" />
<glyph unicode="^" horiz-adv-x="1019" d="M791 705l-281 600l-287 -600h-131l285 602q31 66 65.5 82t75.5 16q29 0 52.5 -7t33.5 -14l324 -679h-137z" />
<glyph unicode="_" horiz-adv-x="1077" d="M47 -256v113h983v-113h-983z" />
<glyph unicode="`" d="M322 1348q2 27 23.5 57.5t66.5 30.5q23 0 40 -7.5t42 -27.5l211 -172l-60 -78z" />
<glyph unicode="a" horiz-adv-x="1200" d="M887 506q-10 2 -41 5t-72 6t-89 5t-91 2q-154 0 -244 -49t-90 -176q0 -111 74 -166t264 -55q131 0 198.5 10t90.5 18v400zM532 928q-117 0 -181 -30t-91 -54q-14 10 -25.5 29.5t-11.5 41.5q0 23 11.5 39.5t27.5 28.5q20 16 82 36.5t180 20.5q246 0 371 -100t125 -324 v-612q-59 -10 -159.5 -21.5t-266.5 -11.5q-158 0 -251 31t-142 78t-63.5 105.5t-14.5 113.5q0 70 21.5 131.5t73.5 107.5t141.5 71.5t222.5 25.5q45 0 92 -2t88 -4t73.5 -4t51.5 -2v4q0 147 -82.5 224t-272.5 77z" />
<glyph unicode="b" horiz-adv-x="1294" d="M180 1440q0 31 17.5 50t56.5 19q18 0 35.5 -5t25.5 -9v-649q12 18 37 51t68 64.5t109.5 55t164.5 23.5q106 0 193.5 -36.5t150 -104.5t96 -165t33.5 -218q0 -119 -36.5 -219t-111.5 -172t-190.5 -113t-273.5 -41q-174 0 -270.5 13.5t-104.5 15.5v1440zM1022 516 q0 193 -87 298.5t-267 105.5q-88 0 -153.5 -31t-110 -85t-67 -128t-22.5 -160v-410q18 -4 77 -14t169 -10q121 0 208 31.5t143.5 88t83 136.5t26.5 178z" />
<glyph unicode="c" horiz-adv-x="1038" d="M668 90q92 0 156.5 24.5t93.5 41.5l55 -101q-35 -23 -117 -53.5t-207 -30.5q-115 0 -210 35t-164.5 102.5t-108.5 165t-39 224.5q0 129 41 229t113.5 170t169 106.5t206.5 36.5q68 0 118 -9t85 -20.5t54.5 -23.5t27.5 -18q14 -10 24.5 -25.5t10.5 -38.5 q0 -16 -11.5 -38.5t-33.5 -39.5q-14 12 -38 28.5t-58.5 32t-79.5 26t-101 10.5q-78 0 -147.5 -25t-121.5 -77t-83 -131t-31 -185q0 -111 31 -189.5t84 -129t125 -74t156 -23.5z" />
<glyph unicode="d" horiz-adv-x="1294" d="M272 516q0 -98 27 -178t83 -136.5t143 -88t208 -31.5q111 0 169.5 10t76.5 14v410q0 86 -22.5 160t-66.5 128t-109.5 85t-153.5 31q-180 0 -267.5 -105.5t-87.5 -298.5zM979 1440q0 31 17.5 50t56.5 19q18 0 35.5 -5t25.5 -9v-1495q-8 -2 -104.5 -15.5t-270.5 -13.5 q-158 0 -273.5 41t-190 113t-111.5 172t-37 219q0 121 34 218t96 165t149.5 104.5t193.5 36.5q98 0 164.5 -23.5t110 -55t68 -64.5t36.5 -51v594z" />
<glyph unicode="e" horiz-adv-x="1198" d="M276 428q20 -174 118 -255t270 -81q100 0 180 27.5t117 50.5l55 -100q-16 -10 -50 -27.5t-82 -33t-108.5 -27t-130.5 -11.5q-109 0 -203 33t-163.5 97.5t-110.5 159.5t-41 222q0 123 40 225.5t109.5 176t166 114.5t206.5 41q209 0 317.5 -100t108.5 -281 q0 -111 -58.5 -171t-189.5 -60h-551zM772 537q82 0 126 26.5t44 112.5q0 49 -15.5 95t-49 81t-90 56.5t-136.5 21.5q-90 0 -159.5 -35t-116.5 -90t-73 -126t-28 -142h498z" />
<glyph unicode="f" horiz-adv-x="706" d="M379 893v-893h-135v893h-125q-29 0 -48.5 13.5t-19.5 45.5q0 23 7.5 38.5t11.5 21.5h174v135q0 94 28.5 162.5t77.5 112.5t118 65.5t148 21.5q106 0 156.5 -18t67.5 -27q20 -12 30.5 -26.5t10.5 -36.5q0 -23 -14.5 -42.5t-24.5 -29.5q-29 25 -85.5 47.5t-131.5 22.5 q-74 0 -122 -21.5t-76 -58.5t-38 -88t-10 -113v-106h266q29 0 48.5 -13.5t19.5 -46.5q0 -23 -7.5 -38t-11.5 -21h-315z" />
<glyph unicode="g" horiz-adv-x="1249" d="M604 188q76 0 139.5 27t108.5 76t69.5 116.5t24.5 151.5q0 82 -24.5 150.5t-69.5 118t-108.5 76t-139.5 26.5q-78 0 -140.5 -26.5t-107.5 -76t-69.5 -118t-24.5 -150.5q0 -84 24.5 -151.5t69.5 -116.5t107.5 -76t140.5 -27zM950 893q68 -63 101.5 -149.5t33.5 -184.5 q0 -117 -43 -210t-118 -159q51 -31 83.5 -65.5t51 -70.5t26 -69.5t7.5 -60.5q0 -84 -34 -149.5t-95.5 -110.5t-148.5 -69.5t-191 -24.5q-106 0 -190.5 19.5t-143 43t-91 44t-38.5 24.5l63 106q14 -10 46 -29.5t82 -40t118 -34.5t152 -14q66 0 126 11t106 39t72.5 74 t26.5 113q0 20 -5 46t-20.5 52.5t-42 52t-67.5 46.5q-98 -45 -213 -45q-102 0 -190 36t-152.5 99t-101.5 151.5t-37 194.5t37 194.5t101.5 152t152.5 99t190 35.5q86 0 172 -28h314q29 0 48 -13.5t19 -46.5q0 -23 -7 -38t-11 -21h-189z" />
<glyph unicode="h" horiz-adv-x="1275" d="M180 1440q0 31 17.5 50t56.5 19q18 0 35.5 -5t25.5 -9v-631q20 33 53 65t79.5 56.5t105.5 39.5t135 15q193 0 300.5 -104.5t107.5 -290.5v-645h-135v594q0 76 -14.5 137.5t-48.5 104.5t-92 65.5t-144 22.5q-90 0 -155 -29t-108 -78t-63.5 -114.5t-20.5 -139.5v-563h-135 v1440z" />
<glyph unicode="i" horiz-adv-x="536" d="M201 942q0 31 17.5 50.5t55.5 19.5q18 0 36 -5.5t26 -9.5v-997h-135v942zM369 1409q0 -43 -30 -72.5t-73 -29.5t-71.5 29.5t-28.5 72.5t28.5 71.5t71.5 28.5t73 -28.5t30 -71.5z" />
<glyph unicode="j" horiz-adv-x="536" d="M336 -109q0 -86 -26.5 -147t-70.5 -99t-101.5 -56.5t-121.5 -18.5q-70 0 -125 16.5t-79 30.5l43 94q14 -10 54 -24.5t105 -14.5q33 0 67 10.5t60.5 35t43 65.5t16.5 102v1057q0 31 17.5 50.5t55.5 19.5q18 0 36 -5.5t26 -9.5v-1106zM369 1409q0 -43 -30 -72.5t-73 -29.5 t-71.5 29.5t-28.5 72.5t28.5 71.5t71.5 28.5t73 -28.5t30 -71.5z" />
<glyph unicode="k" horiz-adv-x="1077" d="M180 0v1440q0 31 17.5 50t56.5 19q18 0 35.5 -5t25.5 -9v-897q8 4 52.5 37t111 81t145 105.5t156.5 112.5q53 39 89 58.5t73 19.5t58.5 -21.5t25.5 -27.5q-8 -8 -50 -39t-100.5 -74t-125 -91t-125 -89t-101.5 -71t-51 -36q211 -147 359.5 -295.5t234.5 -267.5h-172 q-43 57 -107.5 125t-142.5 135.5t-163 133t-167 120.5v-514h-135z" />
<glyph unicode="l" horiz-adv-x="536" d="M201 1440q0 31 17.5 50t55.5 19q18 0 36 -5t26 -9v-1495h-135v1440z" />
<glyph unicode="m" horiz-adv-x="1939" d="M575 924q-55 0 -102 -7.5t-81 -16.5t-53.5 -17.5t-23.5 -10.5v-872h-135v961q6 2 36 15t80 27.5t120.5 25.5t158.5 11q137 0 237.5 -53t158.5 -164q55 106 154.5 161.5t222.5 55.5q86 0 161.5 -22.5t131 -70.5t87 -119.5t31.5 -170.5v-657h-135v594q0 178 -78 254 t-211 76q-63 0 -118.5 -19.5t-95.5 -61.5t-63.5 -108.5t-23.5 -161.5v-573h-135v573q0 94 -24.5 161t-67.5 109t-102.5 61.5t-129.5 19.5z" />
<glyph unicode="n" horiz-adv-x="1275" d="M961 0v565q0 172 -85 265.5t-276 93.5q-61 0 -111.5 -7.5t-87 -16.5t-58 -18.5t-28.5 -11.5v-870h-135v961q6 2 40 15t91.5 27.5t135 25.5t171.5 11q113 0 201 -30.5t149.5 -86t94.5 -131t33 -165.5v-627h-135z" />
<glyph unicode="o" horiz-adv-x="1302" d="M1176 506q0 -117 -40 -215t-110 -169t-166 -111t-209 -40t-209 40t-165.5 111t-109.5 169t-40 215t40 215t109.5 169t166 110.5t208.5 39.5q113 0 209 -39.5t166 -110.5t110 -169t40 -215zM272 506q0 -94 27 -171t77 -132.5t119.5 -86t155.5 -30.5t156 30.5t120 86 t76.5 132.5t26.5 171t-26.5 171t-76.5 132t-120 86t-156 31t-155.5 -31t-119.5 -86t-77 -132t-27 -171z" />
<glyph unicode="p" horiz-adv-x="1286" d="M180 -410v1371q8 2 43 15t88.5 27.5t120 25.5t137.5 11q150 0 261.5 -42t184 -115.5t108.5 -175t36 -220.5q0 -121 -34.5 -215t-98 -159.5t-152 -99t-194.5 -33.5q-96 0 -162.5 21.5t-109.5 49t-64.5 54t-28.5 36.5v-551h-135zM1014 487q0 98 -25.5 179.5t-80 139.5 t-138.5 90t-201 32q-104 0 -171.5 -22.5t-82.5 -28.5v-545q12 -31 34 -71t62 -77t102 -61.5t159 -24.5q166 0 254 98t88 291z" />
<glyph unicode="q" horiz-adv-x="1294" d="M979 -410v576q-12 -18 -36.5 -51t-68 -65t-110 -55.5t-164.5 -23.5q-106 0 -193.5 36t-149.5 103.5t-96 164t-34 217.5q0 119 37 219t110.5 173.5t187 114.5t267.5 41q68 0 133.5 -11t118.5 -25.5t89 -27.5t44 -15v-1371h-135zM272 500q0 -193 85 -300.5t251 -107.5 q94 0 164 31t116 85t68.5 128t22.5 160v381q-14 6 -84 28.5t-174 22.5q-117 0 -201 -31t-139 -86t-82 -134t-27 -177z" />
<glyph unicode="r" horiz-adv-x="829" d="M563 926q-59 0 -104 -9.5t-75 -20.5t-47.5 -22.5t-21.5 -15.5v-858h-135v920q6 4 32 23.5t74 41t116.5 38.5t158.5 17q104 0 157.5 -13t76.5 -30q33 -20 32 -57q0 -23 -10 -41t-20 -27q-25 16 -83.5 35t-150.5 19z" />
<glyph unicode="s" horiz-adv-x="1128" d="M883 965q57 -33 57 -78q0 -29 -15.5 -46.5t-31.5 -27.5q-6 6 -28.5 24.5t-66.5 39t-108.5 37t-152.5 16.5q-143 0 -212 -43t-69 -135q0 -72 55.5 -109t159.5 -53l176 -27q201 -33 280 -103.5t79 -180.5q0 -135 -101.5 -221.5t-326.5 -86.5q-102 0 -183.5 16.5t-139.5 36 t-93 39t-43 25.5l57 102q10 -6 41 -23t81 -35.5t118.5 -33t156.5 -14.5q61 0 115.5 9t93.5 29.5t61.5 53.5t22.5 82q0 39 -12 67.5t-42 50t-79 38t-125 28.5l-147 23q-166 25 -253 91.5t-87 188.5q0 55 19.5 107.5t67.5 94.5t129 67.5t202 25.5q135 0 217 -25t127 -50z" />
<glyph unicode="t" horiz-adv-x="780" d="M244 1278q0 31 17.5 50.5t55.5 19.5q18 0 36 -5.5t26 -9.5v-321h307q29 0 48.5 -13.5t19.5 -46.5q0 -23 -7.5 -38t-11.5 -21h-356v-604q0 -113 49 -158t135 -45q72 0 119 24.5t63 34.5l60 -88q-12 -10 -33.5 -24.5t-54.5 -28.5t-77 -23.5t-99 -9.5q-78 0 -134.5 22.5 t-92 61.5t-53 92.5t-17.5 112.5v633h-125q-29 0 -48.5 13.5t-19.5 45.5q0 23 7.5 38.5t11.5 21.5h174v266z" />
<glyph unicode="u" horiz-adv-x="1257" d="M942 942q0 31 17.5 50.5t56.5 19.5q18 0 35.5 -5.5t25.5 -9.5v-997q-20 -4 -58 -9t-86 -10.5t-104.5 -8.5t-111.5 -3q-188 0 -300 52.5t-173 148.5q-63 106 -64 268v504q0 31 17.5 50.5t56.5 19.5q18 0 35.5 -5.5t25.5 -9.5v-544q0 -92 20.5 -161t69 -114t125 -67.5 t189.5 -22.5q86 0 146.5 7t76.5 11v836z" />
<glyph unicode="v" horiz-adv-x="1083" d="M59 825q-10 23 -24.5 60t-14.5 59q0 29 16.5 48.5t53.5 19.5q23 0 36 -4t17 -7q45 -123 98.5 -246.5t107.5 -238.5t103.5 -216t88.5 -181q39 74 89 180.5t102 224t101.5 234t86.5 209.5q6 14 20 29.5t49 15.5q31 0 50.5 -13.5t23.5 -17.5q-14 -49 -44 -123t-68 -162 t-83 -184t-90 -188.5t-88 -176.5t-78 -147h-149q-47 86 -106.5 201.5t-117 232.5t-105.5 221t-75 170z" />
<glyph unicode="w" horiz-adv-x="1613" d="M446 121q31 92 61 184t61.5 189.5t64.5 205t69 232.5q14 47 38 63.5t65 16.5q29 0 48 -7.5t26 -11.5q25 -92 60.5 -203.5t73.5 -228.5t76.5 -231.5t69.5 -212.5q74 209 148.5 421t130.5 416q8 29 24.5 43.5t50.5 14.5q29 0 47.5 -10.5t22.5 -14.5q-18 -76 -57 -193.5 t-87 -254t-101.5 -276.5t-102.5 -263h-164q-20 53 -55 152.5t-74 218t-79 244.5t-70 231q-31 -115 -69 -240t-76 -240.5t-70.5 -212t-53.5 -153.5h-164q-49 127 -100 268.5t-94 262t-73 206.5t-36 103q-8 23 -17 51.5t-9 48.5q0 29 18.5 50.5t54.5 21.5q23 0 37.5 -4 t18.5 -7q23 -90 56.5 -201.5t73.5 -229t80.5 -234.5t75.5 -215z" />
<glyph unicode="x" horiz-adv-x="1026" d="M840 0q-66 88 -148 186.5t-198 235.5q-94 -117 -180.5 -226.5t-145.5 -195.5h-148q14 23 54.5 74t95.5 119.5t119.5 150.5t130.5 164q-55 63 -107.5 121.5t-97.5 108.5t-80 89t-55 64q-14 16 -23.5 32.5t-9.5 32.5q0 18 12.5 37t49.5 19t49 -13l344 -391l286 355 q16 20 35 34.5t54 14.5q29 0 49 -11.5t28 -19.5q-10 -14 -45 -56t-87 -103.5t-115.5 -138.5t-131.5 -161q70 -80 137.5 -159.5t125 -150.5t101.5 -126t67 -86h-166z" />
<glyph unicode="y" horiz-adv-x="1085" d="M582 215q31 59 72.5 147.5t86.5 188.5t88 203.5t78 193.5q10 29 29.5 46.5t54.5 17.5q31 0 50.5 -13.5t23.5 -17.5q-29 -92 -83 -217t-126 -279t-148.5 -303t-162.5 -293q-51 -86 -97.5 -143t-93.5 -92t-98 -49.5t-115 -14.5q-51 0 -89 8.5t-64.5 18.5t-41 19.5 t-16.5 11.5l56 106q10 -8 51 -28.5t104 -20.5q51 0 91 15.5t77 51t73 92t79 136.5l45 86q-18 31 -56 93.5t-85.5 140t-97.5 161.5t-94 159t-77 131t-45 79q-10 23 -20.5 47.5t-10.5 46.5q0 29 15.5 48.5t50.5 19.5q23 0 36 -4t17 -7q8 -18 35 -69t64.5 -121t84 -150.5 t92.5 -162.5t90 -156t77 -127z" />
<glyph unicode="z" horiz-adv-x="1064" d="M897 1012q86 0 86 -68q0 -12 -3 -25.5t-14.5 -30t-29.5 -41t-49 -59.5q-41 -45 -97.5 -104t-120 -122.5t-130 -129t-127 -125t-110.5 -108.5t-83 -80h764v-119h-922v131q47 43 112 104.5t136.5 133t145 146.5t142.5 145.5t126 131t94 101.5h-688q-29 0 -48.5 13.5 t-19.5 45.5q0 23 7.5 38.5t11.5 21.5h817z" />
<glyph unicode="{" horiz-adv-x="808" d="M629 1389q-94 0 -126 -40t-32 -132v-304q0 -68 -10 -114.5t-31.5 -78.5t-55.5 -54.5t-79 -42.5q45 -23 79 -46.5t55.5 -56.5t31.5 -79t10 -115v-303q0 -92 32 -132.5t126 -40.5h88v-120h-137q-117 0 -181.5 56t-64.5 173v365q0 131 -62.5 182t-173.5 51h-6v123h6 q111 0 173.5 51t62.5 182v367q0 117 64.5 173t181.5 56h118q4 -6 11.5 -21t7.5 -38q0 -33 -19.5 -47t-48.5 -14h-20z" />
<glyph unicode="|" horiz-adv-x="540" d="M205 1440q0 31 17.5 50t56.5 19q18 0 35.5 -5t25.5 -9v-1765h-135v1710z" />
<glyph unicode="}" horiz-adv-x="808" d="M160 1389q-29 0 -48.5 14t-19.5 47q0 23 7 38t12 21h118q117 0 181.5 -56t64.5 -173v-367q0 -131 62.5 -182t173.5 -51h6v-123h-6q-111 0 -173.5 -51t-62.5 -182v-365q0 -117 -64.5 -173t-181.5 -56h-137v120h88q94 0 126 40t32 133v303q0 70 10 115.5t31.5 78.5 t54.5 56.5t80 46.5q-47 20 -80 42.5t-54.5 54.5t-31.5 79t-10 114v304q0 92 -32 132t-126 40h-20z" />
<glyph unicode="~" horiz-adv-x="1327" d="M573 662q-39 16 -93 31.5t-101 15.5q-39 0 -65.5 -14.5t-44 -36t-28 -49t-16.5 -54.5h-112q16 150 87.5 218.5t190.5 68.5q53 0 102.5 -12.5t94.5 -28.5l151 -64q45 -16 86 -28.5t93 -12.5q43 0 70.5 12.5t45 33t25.5 48t14 58.5h111q-16 -141 -83 -215t-183 -74 q-53 0 -108.5 15.5t-96.5 31.5z" />
<glyph unicode="&#xa1;" horiz-adv-x="493" d="M313 45q0 -33 -15 -53.5t-56 -20.5q-20 0 -37 5.5t-27 11.5v954h135v-897zM125 1286q0 49 35 84t84 35q51 0 87 -35t36 -84q0 -51 -36 -87t-87 -36q-49 0 -84 36t-35 87z" />
<glyph unicode="&#xa2;" horiz-adv-x="1335" d="M678 174q-96 14 -174 54t-135.5 106.5t-88 157t-30.5 202.5q0 113 32.5 205t89 159.5t135.5 110.5t171 60v219q0 20 15.5 34.5t43.5 14.5q20 0 34.5 -4t19.5 -6v-250q63 0 111 -9t82 -21.5t53.5 -24t27.5 -17.5q14 -10 24.5 -25.5t10.5 -37.5q0 -16 -11.5 -39t-33.5 -39 q-29 25 -92.5 58.5t-171.5 37.5v-835q92 0 156.5 25.5t92.5 41.5l56 -100q-33 -23 -111 -51.5t-194 -32.5v-244h-113v250zM395 702q0 -184 79 -281t204 -126v813q-61 -14 -112.5 -46t-89.5 -82t-59.5 -120t-21.5 -158z" />
<glyph unicode="&#xa3;" horiz-adv-x="1335" d="M1200 123v-123h-973l41 901q10 240 146.5 380t380.5 140q98 0 167.5 -15t115.5 -33.5t68.5 -36t29.5 -23.5q23 -20 32 -36.5t9 -39.5q0 -25 -17.5 -49.5t-42.5 -34.5q-16 23 -47 49.5t-76 50t-102.5 39t-126.5 15.5q-104 0 -178 -33t-121 -90.5t-69.5 -135t-26.5 -165.5 l-7 -129h549q29 0 48.5 -14.5t19.5 -47.5q0 -23 -7 -39t-12 -22h-604l-22 -508h825z" />
<glyph unicode="&#xa4;" horiz-adv-x="1196" d="M135 702q0 82 27.5 156t75.5 133l-125 133l88 95l131 -138q113 84 266 84q74 0 141.5 -22.5t124.5 -63.5l131 140l88 -95l-125 -133q47 -59 75 -133t28 -156q0 -86 -27.5 -158.5t-75.5 -131.5l125 -131l-88 -95l-129 140q-57 -41 -124.5 -63.5t-143.5 -22.5 q-154 0 -268 84l-129 -138l-88 95l125 131q-47 59 -75 131.5t-28 158.5zM262 702q0 -74 26.5 -137t72 -110t106.5 -74t131 -27t131.5 27t106.5 74t71.5 110.5t26.5 136.5q0 74 -26.5 137.5t-71.5 110.5t-106.5 74t-131.5 27t-131 -27t-106.5 -74t-72 -110.5t-26.5 -137.5z " />
<glyph unicode="&#xa5;" horiz-adv-x="1310" d="M725 299v-299h-143v299h-349q-29 0 -48 14.5t-19 44.5q0 20 7 36t11 22h398v166h-349q-29 0 -48 14t-19 45q0 20 7 35.5t11 21.5h330q-111 129 -210 257t-191 257q-33 45 -47.5 76t-14.5 53q0 23 12.5 43.5t47.5 20.5q23 0 37 -5t18 -9q111 -160 231.5 -329t255.5 -329 q43 57 97.5 133t111 158t113.5 164t106 153q23 33 45.5 48.5t55.5 15.5q35 0 54 -12.5t24 -16.5q-98 -154 -220 -329t-258 -349h293q29 0 48.5 -14t19.5 -45q0 -20 -7.5 -35.5t-11.5 -21.5h-399v-166h350q29 0 48.5 -14.5t19.5 -45.5q0 -20 -7.5 -35.5t-11.5 -21.5h-399z " />
<glyph unicode="&#xa6;" horiz-adv-x="540" d="M205 913v527q0 31 17.5 50t56.5 19q18 0 35.5 -5t25.5 -9v-582h-135zM340 -270h-135v592h135v-592z" />
<glyph unicode="&#xa7;" horiz-adv-x="1331" d="M774 311q55 0 105.5 19.5t87.5 52.5t59.5 77t22.5 93q0 92 -63.5 154.5t-221.5 83.5l-96 12q-47 8 -117 8q-59 0 -107.5 -20.5t-83 -54.5t-54 -79t-19.5 -92q0 -92 69.5 -151.5t182.5 -75.5l106 -14q18 -4 58 -8.5t71 -4.5zM344 852q-98 41 -147.5 120t-49.5 179 q0 68 25 132.5t83 114.5t152.5 80.5t233.5 30.5q154 0 257 -30.5t155 -59.5q31 -23 46 -41t15 -43q0 -35 -16.5 -53t-34.5 -29q-10 8 -41 31t-83 46.5t-127 42t-173 18.5q-160 0 -251 -57.5t-91 -174.5q0 -92 62.5 -143t175.5 -68l237 -30q117 -16 197 -46t129 -73 t69.5 -99.5t20.5 -124.5q0 -100 -55.5 -185t-155.5 -128q106 -43 158.5 -119.5t52.5 -171.5q0 -82 -32 -151.5t-95.5 -120.5t-155.5 -80t-215 -29t-222 22.5t-170 50.5t-111 52.5t-44 28.5l70 104q4 -4 39 -26.5t95.5 -47t145.5 -44t191 -19.5q76 0 141.5 14.5t112.5 44 t74.5 74.5t27.5 105q0 92 -61 150.5t-219 80.5l-232 33q-174 25 -277.5 111t-103.5 233q0 92 48.5 172t148.5 123z" />
<glyph unicode="&#xa8;" d="M330 1180q-41 0 -74 31.5t-33 70.5t33 70.5t74 31.5q43 0 74.5 -31.5t31.5 -70.5t-31.5 -70.5t-74.5 -31.5zM692 1180q-43 0 -74.5 31.5t-31.5 70.5t31.5 70.5t74.5 31.5t75 -31.5t32 -70.5t-32 -70.5t-75 -31.5z" />
<glyph unicode="&#xa9;" horiz-adv-x="1671" d="M1104 1077q23 -16 29 -28.5t6 -28.5q0 -25 -18.5 -48.5t-35.5 -31.5q-23 27 -87 57.5t-146 30.5q-63 0 -118.5 -22.5t-97.5 -64.5t-66.5 -103.5t-24.5 -139.5t24.5 -138t68.5 -102t102.5 -63.5t125.5 -21.5q86 0 145.5 22.5t86.5 40.5l49 -98q-31 -23 -100.5 -51.5 t-188.5 -28.5q-88 0 -168 29.5t-141.5 86t-97 138.5t-35.5 184q0 104 35.5 186.5t96 140.5t139.5 89t167 31q92 0 156.5 -21.5t93.5 -44.5zM96 702q0 154 58.5 288t159 234.5t234.5 159t288 58.5t287.5 -58.5t234 -159t159 -234.5t58.5 -288t-58.5 -287.5t-159 -234 t-234.5 -159t-287 -58.5q-154 0 -288 58.5t-234.5 159t-159 234t-58.5 287.5zM236 702q0 -129 47 -242.5t128 -197.5t190.5 -132t234.5 -48t234.5 48t190 132t128 197.5t47.5 242.5t-47.5 243t-128 198t-190 132t-234.5 48t-234.5 -48t-190.5 -132t-128 -198t-47 -243z" />
<glyph unicode="&#xaa;" horiz-adv-x="835" d="M362 1346q-78 0 -128 -21.5t-70 -40.5q-14 10 -26.5 27.5t-12.5 34.5q0 31 35 53h-2q14 10 65 26.5t137 16.5q180 0 276.5 -73t96.5 -232v-437q-47 -6 -129 -15t-180 -9q-119 0 -191.5 20.5t-112.5 54t-53.5 75.5t-13.5 83q0 53 16.5 97.5t56.5 76t106.5 49t168.5 17.5 q59 0 119 -6t94 -10q0 63 -20.5 105t-55 65.5t-81 33t-95.5 9.5zM426 768q78 0 123 5t65 9v254l-4 2h2q-23 4 -74 11.5t-143 7.5q-100 0 -160.5 -32t-60.5 -116q0 -72 58.5 -106.5t193.5 -34.5z" />
<glyph unicode="&#xab;" d="M104 432q-10 10 -19 27.5t-9 34.5q0 12 1 19t3 11l344 402l90 -72l-305 -358l305 -338l-90 -72zM541 432q-10 10 -19.5 27.5t-9.5 34.5q0 12 1 19t3 11l344 402l90 -72l-305 -358l305 -338l-90 -72z" />
<glyph unicode="&#xac;" horiz-adv-x="1304" d="M166 784q-39 0 -54.5 17.5t-15.5 46.5q0 16 4 31.5t9 25.5h981q39 0 54 -17.5t15 -45.5v-463h-133v405h-860z" />
<glyph unicode="&#xad;" horiz-adv-x="714" d="M197 481q-41 0 -57.5 24.5t-16.5 55.5t12 66h383q43 0 58.5 -24.5t15.5 -55.5q0 -25 -10 -66h-385z" />
<glyph unicode="&#xae;" horiz-adv-x="1671" d="M1038 887q0 74 -60 120t-216 46q-57 0 -93 -3t-53 -6v-321q23 -4 61 -7t97 -3q141 0 202.5 46t61.5 128zM1159 887q0 -100 -51 -159.5t-117 -84.5q31 -41 59.5 -87t56.5 -93t52.5 -93t44.5 -85h-133q-14 27 -39.5 72.5t-55.5 95t-57.5 93.5t-46.5 68q-14 -2 -51 -3 t-71 -1q-31 0 -69 2t-65 6v-333h-110v792q0 55 61 68q37 10 203 10q84 0 155.5 -14.5t124 -46t81 -82.5t28.5 -125zM96 702q0 154 58.5 288t159 234.5t234.5 159t288 58.5t287.5 -58.5t234 -159t159 -234.5t58.5 -288t-58.5 -287.5t-159 -234t-234.5 -159t-287 -58.5 q-154 0 -288 58.5t-234.5 159t-159 234t-58.5 287.5zM236 702q0 -129 47 -242.5t128 -197.5t190.5 -132t234.5 -48t234.5 48t190 132t128 197.5t47.5 242.5t-47.5 243t-128 198t-190 132t-234.5 48t-234.5 -48t-190.5 -132t-128 -198t-47 -243z" />
<glyph unicode="&#xaf;" d="M748 1352q41 0 57 -18.5t16 -47.5q0 -20 -4 -35.5t-8 -25.5h-533q-41 0 -57 18.5t-16 48.5q0 18 4 33.5t8 26.5h533z" />
<glyph unicode="&#xb0;" horiz-adv-x="851" d="M801 1141q0 -78 -30 -144.5t-80 -116t-118.5 -78t-146.5 -28.5t-146.5 28.5t-118.5 78t-80 116t-30 144.5t30 145.5t80 116.5t118.5 77.5t146.5 28.5t146.5 -28.5t118.5 -77.5t80 -116.5t30 -145.5zM682 1141q0 53 -20.5 100t-55.5 82t-82 55.5t-98 20.5q-53 0 -99 -20.5 t-80 -55.5t-54.5 -82t-20.5 -100t20.5 -99.5t54.5 -80t80 -54t99 -20.5q51 0 98 20.5t82 54t55.5 80t20.5 99.5z" />
<glyph unicode="&#xb1;" horiz-adv-x="1304" d="M1184 733q0 -18 -4 -33.5t-9 -25.5h-450v-422h-133v422h-398q-39 0 -54 18.5t-15 46.5q0 16 4 31.5t8 26.5h455v368q0 29 16.5 48.5t52.5 19.5q41 0 64 -14v-422h393q39 0 54.5 -18.5t15.5 -45.5zM190 0q-39 0 -54 18.5t-15 47.5q0 16 4 31.5t8 25.5h981q39 0 54.5 -18.5 t15.5 -45.5q0 -18 -4 -33.5t-9 -25.5h-981z" />
<glyph unicode="&#xb2;" horiz-adv-x="970" d="M166 1409q8 8 28.5 24.5t55.5 33t83 29.5t111 13q172 0 258 -74.5t86 -187.5q0 -49 -12 -88t-32.5 -72.5t-47 -62.5t-53.5 -53q-23 -18 -62.5 -49t-85.5 -66t-92.5 -67.5t-80.5 -55.5h475v-100h-664v100q29 18 75 49t98 66t101.5 69.5t84.5 63.5q33 27 63.5 56.5t55 62.5 t40 69.5t15.5 77.5q0 63 -51.5 113.5t-170.5 50.5q-57 0 -99 -17.5t-68.5 -39t-41 -42t-16.5 -26.5q-33 4 -56.5 18.5t-23.5 43.5q0 34 27 61z" />
<glyph unicode="&#xb3;" horiz-adv-x="970" d="M418 1124q104 0 167.5 39t63.5 111q0 70 -59.5 103.5t-157.5 33.5q-61 0 -104 -13.5t-72 -31.5t-44 -36.5t-19 -26.5q-33 4 -54.5 18t-21.5 39q0 16 5 30.5t21 30.5q8 8 31 23.5t58.5 30t85 24.5t114.5 10q94 0 158.5 -20.5t104.5 -53t58.5 -72.5t18.5 -79 q0 -76 -43 -128t-100 -81q88 -31 123.5 -87t35.5 -122q0 -111 -93 -183.5t-259 -72.5q-59 0 -113.5 9.5t-99.5 22.5t-79.5 27.5t-55.5 24.5l47 88q41 -23 121 -47t172 -24q104 0 170 40t66 119q0 78 -71 113t-181 35h-76q-8 4 -16.5 19.5t-8.5 33.5q0 29 18.5 41t47.5 12h41 z" />
<glyph unicode="&#xb4;" d="M383 1151l-59 78l211 172q25 20 42 27.5t39 7.5q45 0 67 -31t24 -57z" />
<glyph unicode="&#xb5;" horiz-adv-x="1257" d="M717 -31q-143 0 -240.5 39t-161.5 119v-537h-135v1352q0 31 17.5 50.5t56.5 19.5q18 0 35.5 -5.5t25.5 -9.5v-671q12 -31 35 -72t67 -78t116.5 -62.5t185.5 -25.5q86 0 146.5 7t76.5 11v836q0 31 17.5 50.5t56.5 19.5q18 0 35.5 -5.5t25.5 -9.5v-997q-20 -4 -58 -9 t-86 -10.5t-104.5 -8.5t-111.5 -3z" />
<glyph unicode="&#xb6;" horiz-adv-x="1341" d="M1044 -410v1698q-16 4 -81.5 9.5t-176.5 7.5v-1715h-141v928q-158 8 -264.5 48t-171 101.5t-93 141.5t-28.5 166q0 119 48 205t135 140t207 79.5t263 25.5q150 0 244 -8t117 -12q82 -8 82 -82v-1733h-140z" />
<glyph unicode="&#xb7;" horiz-adv-x="569" d="M406 684q0 -49 -35 -84t-84 -35q-51 0 -87 35t-36 84q0 51 36 87t87 36q49 0 84 -36t35 -87z" />
<glyph unicode="&#xb8;" d="M514 -86q31 -2 63.5 -13.5t60.5 -31t46 -50t18 -73.5q0 -86 -54 -132t-148 -46q-78 0 -126 19.5t-52 23.5l38 82q4 -4 41 -20.5t88 -16.5q43 0 72 17.5t29 64.5q0 25 -11.5 41t-27.5 26.5t-34.5 14.5t-31.5 4z" />
<glyph unicode="&#xb9;" horiz-adv-x="970" d="M436 1470q27 16 50.5 27.5t54.5 11.5q27 0 43 -9t26 -19v-848h-121v745l-243 -155q-18 6 -38 21.5t-20 37.5q0 35 37 57z" />
<glyph unicode="&#xba;" horiz-adv-x="913" d="M852 1059q0 -80 -29.5 -149.5t-83 -122t-125 -82t-157.5 -29.5t-158 29.5t-125 82t-83 122t-30 149.5t30 150.5t83 121.5t125 81t158 30t157.5 -30t125 -81t83 -121.5t29.5 -150.5zM725 1059q0 61 -19.5 113.5t-55.5 90t-85 60.5t-108 23t-109.5 -23t-85.5 -60.5 t-54.5 -90t-19.5 -113.5q0 -59 19.5 -111.5t55.5 -90.5t85 -60.5t109 -22.5q59 0 108 22.5t85 60.5t55.5 90.5t19.5 111.5z" />
<glyph unicode="&#xbb;" d="M922 580q10 -10 19 -27.5t9 -34.5q0 -12 -1 -19t-3 -12l-344 -401l-90 72l305 358l-305 338l90 72zM485 580q10 -10 19.5 -27.5t9.5 -34.5q0 -12 -1 -19t-3 -12l-344 -401l-90 72l305 358l-305 338l90 72z" />
<glyph unicode="&#xbc;" horiz-adv-x="1923" d="M305 1470q27 16 50.5 27.5t54.5 11.5q27 0 43 -9t26 -19v-848h-121v745l-243 -155q-18 6 -38 21.5t-20 37.5q0 35 37 57zM473 0h-131l823 1454q10 20 30 37.5t48 17.5q27 0 43.5 -10t26.5 -20zM1624 340q27 0 44 -11t17 -40q0 -14 -9 -28.5t-13 -18.5h-100v-225h-121v225 h-295q-117 0 -162 31t-45 96q0 74 46 147.5t101 133.5q45 51 98.5 96t105.5 78t100.5 51t85.5 18q41 0 61 -11t25 -15v-527h61zM1442 789q-55 -25 -121 -70t-121 -104q-23 -23 -47.5 -51.5t-45 -58t-32.5 -60.5t-12 -57q0 -31 27.5 -39.5t68.5 -8.5h283v449z" />
<glyph unicode="&#xbd;" horiz-adv-x="1923" d="M305 1470q27 16 50.5 27.5t54.5 11.5q27 0 43 -9t26 -19v-848h-121v745l-243 -155q-18 6 -38 21.5t-20 37.5q0 35 37 57zM473 0h-131l823 1454q10 20 30 37.5t48 17.5q27 0 43.5 -10t26.5 -20zM1055 793q8 8 28.5 24.5t55.5 33t83 29.5t111 13q172 0 258 -74.5t86 -187.5 q0 -49 -12 -88t-32.5 -72.5t-47 -62.5t-53.5 -53q-23 -18 -62.5 -49t-85.5 -66t-92.5 -67.5t-80.5 -55.5h475v-100h-664v100q29 18 75 49t98 66t101.5 69.5t84.5 63.5q33 27 63.5 56.5t55 62.5t40 69.5t15.5 77.5q0 63 -51.5 113.5t-170.5 50.5q-57 0 -99 -17.5t-68.5 -39 t-41 -42t-16.5 -26.5q-33 4 -56.5 18.5t-23.5 43.5q0 34 27 61z" />
<glyph unicode="&#xbe;" horiz-adv-x="1923" d="M418 1124q104 0 167.5 39t63.5 111q0 70 -59.5 103.5t-157.5 33.5q-61 0 -104 -13.5t-72 -31.5t-44 -36.5t-19 -26.5q-33 4 -54.5 18t-21.5 39q0 16 5 30.5t21 30.5q8 8 31 23.5t58.5 30t85 24.5t114.5 10q94 0 158.5 -20.5t104.5 -53t58.5 -72.5t18.5 -79 q0 -76 -43 -128t-100 -81q88 -31 123.5 -87t35.5 -122q0 -111 -93 -183.5t-259 -72.5q-59 0 -113.5 9.5t-99.5 22.5t-79.5 27.5t-55.5 24.5l47 88q41 -23 121 -47t172 -24q104 0 170 40t66 119q0 78 -71 113t-181 35h-76q-8 4 -16.5 19.5t-8.5 33.5q0 29 18.5 41t47.5 12h41 zM596 0h-131l823 1454q10 20 30 37.5t48 17.5q27 0 43.5 -10t26.5 -20zM1747 340q27 0 44 -11t17 -40q0 -14 -9 -28.5t-13 -18.5h-100v-225h-121v225h-295q-117 0 -162 31t-45 96q0 74 46 147.5t101 133.5q45 51 98.5 96t105.5 78t100.5 51t85.5 18q41 0 61 -11t25 -15v-527 h61zM1565 789q-55 -25 -121 -70t-121 -104q-23 -23 -47.5 -51.5t-45 -58t-32.5 -60.5t-12 -57q0 -31 27.5 -39.5t68.5 -8.5h283v449z" />
<glyph unicode="&#xbf;" horiz-adv-x="1142" d="M627 51q88 0 150.5 24.5t103.5 58.5t63.5 68t28.5 52q31 -4 55.5 -23.5t24.5 -48.5q0 -25 -10.5 -46t-26.5 -44q-10 -12 -37 -37.5t-75 -52.5t-118.5 -46t-167.5 -19q-135 0 -226 34.5t-146.5 91t-79 126t-23.5 141.5q0 80 23.5 142.5t61.5 111.5t87.5 88t98.5 69 q49 31 81.5 56.5t51 52.5t27 56.5t8.5 70.5h137q0 -47 -7 -88t-26.5 -77t-53.5 -69.5t-87 -66.5q-139 -84 -197.5 -161t-58.5 -181q0 -57 18.5 -108.5t58.5 -90.5t104.5 -61.5t156.5 -22.5zM528 1288q0 49 35 84t84 35q51 0 87 -35t36 -84q0 -51 -36 -87t-87 -36 q-49 0 -84 36t-35 87z" />
<glyph unicode="&#xc0;" horiz-adv-x="1458" d="M51 0q57 162 124 334t134.5 340t134 326.5t125.5 293.5q37 82 70 115t90 33q45 0 70.5 -18.5t40.5 -34.5q35 -63 86 -179t109.5 -255.5t118.5 -289t111.5 -282.5t89.5 -235.5t52 -147.5h-158q-10 25 -28.5 78t-41 116.5t-46 127t-41.5 108.5h-744q-51 -131 -94 -249 t-66 -181h-137zM723 1317q-35 -72 -74 -160t-81 -187.5t-86 -206t-87 -212.5h652q-37 100 -82 215t-90.5 220.5t-85 193.5t-66.5 137zM510 1693q0 35 26.5 67t81.5 32q23 0 40.5 -7.5t41.5 -23.5l246 -162l-57 -88z" />
<glyph unicode="&#xc1;" horiz-adv-x="1458" d="M51 0q57 162 124 334t134.5 340t134 326.5t125.5 293.5q37 82 70 115t90 33q45 0 70.5 -18.5t40.5 -34.5q35 -63 86 -179t109.5 -255.5t118.5 -289t111.5 -282.5t89.5 -235.5t52 -147.5h-158q-10 25 -28.5 78t-41 116.5t-46 127t-41.5 108.5h-744q-51 -131 -94 -249 t-66 -181h-137zM723 1317q-35 -72 -74 -160t-81 -187.5t-86 -206t-87 -212.5h652q-37 100 -82 215t-90.5 220.5t-85 193.5t-66.5 137zM567 1511l-57 88l246 162q25 16 42 23.5t40 7.5q55 0 81.5 -32t26.5 -67z" />
<glyph unicode="&#xc2;" horiz-adv-x="1458" d="M51 0q57 162 124 334t134.5 340t134 326.5t125.5 293.5q37 82 70 115t90 33q45 0 70.5 -18.5t40.5 -34.5q35 -63 86 -179t109.5 -255.5t118.5 -289t111.5 -282.5t89.5 -235.5t52 -147.5h-158q-10 25 -28.5 78t-41 116.5t-46 127t-41.5 108.5h-744q-51 -131 -94 -249 t-66 -181h-137zM723 1317q-35 -72 -74 -160t-81 -187.5t-86 -206t-87 -212.5h652q-37 100 -82 215t-90.5 220.5t-85 193.5t-66.5 137zM1042 1583l-55 -70l-258 129l-260 -129l-55 70l200 149q31 23 56.5 41.5t58.5 18.5t58.5 -18.5t56.5 -41.5z" />
<glyph unicode="&#xc3;" horiz-adv-x="1458" d="M51 0q57 162 124 334t134.5 340t134 326.5t125.5 293.5q37 82 70 115t90 33q45 0 70.5 -18.5t40.5 -34.5q35 -63 86 -179t109.5 -255.5t118.5 -289t111.5 -282.5t89.5 -235.5t52 -147.5h-158q-10 25 -28.5 78t-41 116.5t-46 127t-41.5 108.5h-744q-51 -131 -94 -249 t-66 -181h-137zM723 1317q-35 -72 -74 -160t-81 -187.5t-86 -206t-87 -212.5h652q-37 100 -82 215t-90.5 220.5t-85 193.5t-66.5 137zM870 1550q-43 0 -82 10.5t-73 22.5q-37 12 -70 23.5t-61 11.5q-35 0 -50.5 -20.5t-25.5 -59.5l-111 16q6 33 18.5 68t35 62.5t55 45 t80.5 17.5q43 0 82.5 -10.5t74.5 -22.5q37 -12 69 -22.5t60 -10.5q35 0 50.5 19.5t25.5 58.5l113 -16q-6 -35 -19.5 -70t-36 -62.5t-56.5 -44t-79 -16.5z" />
<glyph unicode="&#xc4;" horiz-adv-x="1458" d="M51 0q57 162 124 334t134.5 340t134 326.5t125.5 293.5q37 82 70 115t90 33q45 0 70.5 -18.5t40.5 -34.5q35 -63 86 -179t109.5 -255.5t118.5 -289t111.5 -282.5t89.5 -235.5t52 -147.5h-158q-10 25 -28.5 78t-41 116.5t-46 127t-41.5 108.5h-744q-51 -131 -94 -249 t-66 -181h-137zM723 1317q-35 -72 -74 -160t-81 -187.5t-86 -206t-87 -212.5h652q-37 100 -82 215t-90.5 220.5t-85 193.5t-66.5 137zM528 1536q-43 0 -76.5 32.5t-33.5 71.5q0 41 33.5 74t76.5 33q45 0 78 -33t33 -74q0 -39 -33 -71.5t-78 -32.5zM930 1536q-45 0 -78 32.5 t-33 71.5q0 41 33 74t78 33t77.5 -33t32.5 -74q0 -39 -32.5 -71.5t-77.5 -32.5z" />
<glyph unicode="&#xc5;" horiz-adv-x="1458" d="M518 1569q0 43 16.5 80t45 65.5t67.5 45t82 16.5t82 -16.5t67.5 -45t45 -65.5t16.5 -80q0 -57 -27.5 -103.5t-74.5 -74.5q35 -63 87 -179t110.5 -255.5t117.5 -290t111.5 -283.5t90.5 -235.5t52 -147.5h-158q-10 25 -28.5 78t-41 116.5t-46 127t-41.5 108.5h-744 q-51 -131 -94 -249t-66 -181h-137q57 162 124 334t134.5 340t134 326.5t125.5 293.5q14 31 26.5 55.5t27.5 41.5q-47 27 -76 74t-29 104zM723 1317q-35 -72 -74 -160t-81 -187.5t-86 -206t-87 -212.5h652q-37 100 -82 215t-90.5 220.5t-85 193.5t-66.5 137zM612 1569 q0 -51 33 -86t84 -35t84 35t33 86t-33 86t-84 35t-84 -35t-33 -86z" />
<glyph unicode="&#xc6;" horiz-adv-x="2148" d="M51 0q147 250 282.5 464t245 379t186.5 274.5t109 152.5q27 37 48.5 62.5t44 42t47 23.5t59.5 7h862q29 0 48.5 -15.5t19.5 -48.5q0 -23 -7 -39t-11 -22h-678v-489h600q29 0 48 -15.5t19 -48.5q0 -23 -7 -39t-11 -22h-649v-541h684v-125h-834v481h-663 q-88 -135 -165 -261t-130 -220h-148zM1157 606v674h-119q-27 -35 -75 -102.5t-109 -157.5t-133 -196.5t-146 -217.5h582z" />
<glyph unicode="&#xc7;" horiz-adv-x="1370" d="M1227 1337q31 -23 41 -42t10 -38q0 -29 -21.5 -54t-42.5 -36q-20 25 -57 51.5t-86 48t-111.5 36t-134.5 14.5q-119 0 -220 -43t-176 -123t-118 -194.5t-43 -258.5q0 -147 45 -260.5t124 -190.5t184.5 -117t226.5 -40q70 0 129 11.5t106 26.5t83 32.5t59 32.5l61 -111 q-25 -16 -67.5 -36.5t-101 -39t-128 -31t-149.5 -12.5q-147 0 -278.5 49t-230 143.5t-156.5 230.5t-58 310t57 312.5t154.5 234.5t227.5 147.5t275 51.5q76 0 140.5 -11.5t116 -28t87.5 -35t52 -30.5zM727 -84q31 -2 64.5 -13.5t63.5 -32t48 -51t18 -73.5q0 -86 -55 -134 t-149 -48q-39 0 -72 6t-56.5 14t-38 16.5t-16.5 10.5l41 88q4 -4 42 -21.5t89 -17.5q41 0 68 16.5t27 61.5q0 23 -11.5 38t-28 24.5t-35 13.5t-30.5 4z" />
<glyph unicode="&#xc8;" horiz-adv-x="1224" d="M983 791q29 0 48.5 -15.5t19.5 -48.5q0 -23 -7.5 -39t-11.5 -22h-686v-541h721v-125h-862v1323q0 37 22.5 59.5t65.5 22.5h719q29 0 48 -15.5t19 -48.5q0 -23 -7 -39t-11 -22h-715v-489h637zM424 1693q0 35 26.5 67t81.5 32q23 0 40.5 -7.5t41.5 -23.5l246 -162l-57 -88z " />
<glyph unicode="&#xc9;" horiz-adv-x="1224" d="M983 791q29 0 48.5 -15.5t19.5 -48.5q0 -23 -7.5 -39t-11.5 -22h-686v-541h721v-125h-862v1323q0 37 22.5 59.5t65.5 22.5h719q29 0 48 -15.5t19 -48.5q0 -23 -7 -39t-11 -22h-715v-489h637zM524 1511l-57 88l246 162q25 16 42 23.5t40 7.5q55 0 81.5 -32t26.5 -67z" />
<glyph unicode="&#xca;" horiz-adv-x="1224" d="M983 791q29 0 48.5 -15.5t19.5 -48.5q0 -23 -7.5 -39t-11.5 -22h-686v-541h721v-125h-862v1323q0 37 22.5 59.5t65.5 22.5h719q29 0 48 -15.5t19 -48.5q0 -23 -7 -39t-11 -22h-715v-489h637zM968 1583l-55 -70l-258 129l-260 -129l-55 70l200 149q31 23 56.5 41.5 t58.5 18.5t58.5 -18.5t56.5 -41.5z" />
<glyph unicode="&#xcb;" horiz-adv-x="1224" d="M983 791q29 0 48.5 -15.5t19.5 -48.5q0 -23 -7.5 -39t-11.5 -22h-686v-541h721v-125h-862v1323q0 37 22.5 59.5t65.5 22.5h719q29 0 48 -15.5t19 -48.5q0 -23 -7 -39t-11 -22h-715v-489h637zM459 1536q-43 0 -76.5 32.5t-33.5 71.5q0 41 33.5 74t76.5 33q45 0 78 -33 t33 -74q0 -39 -33 -71.5t-78 -32.5zM861 1536q-45 0 -78 32.5t-33 71.5q0 41 33 74t78 33t77.5 -33t32.5 -74q0 -39 -32.5 -71.5t-77.5 -32.5z" />
<glyph unicode="&#xcc;" horiz-adv-x="550" d="M205 0v1331q0 33 17.5 53.5t58.5 20.5q20 0 37.5 -5t27.5 -11v-1389h-141zM49 1693q0 35 26.5 67t81.5 32q23 0 40.5 -7.5t41.5 -23.5l246 -162l-57 -88z" />
<glyph unicode="&#xcd;" horiz-adv-x="550" d="M205 0v1331q0 33 17.5 53.5t58.5 20.5q20 0 37.5 -5t27.5 -11v-1389h-141zM170 1511l-57 88l246 162q25 16 42 23.5t40 7.5q55 0 81.5 -32t26.5 -67z" />
<glyph unicode="&#xce;" horiz-adv-x="550" d="M205 0v1331q0 33 17.5 53.5t58.5 20.5q20 0 37.5 -5t27.5 -11v-1389h-141zM606 1583l-55 -70l-258 129l-260 -129l-55 70l200 149q31 23 56.5 41.5t58.5 18.5t58.5 -18.5t56.5 -41.5z" />
<glyph unicode="&#xcf;" horiz-adv-x="550" d="M205 0v1331q0 33 17.5 53.5t58.5 20.5q20 0 37.5 -5t27.5 -11v-1389h-141zM92 1536q-43 0 -76.5 32.5t-33.5 71.5q0 41 33.5 74t76.5 33q45 0 78 -33t33 -74q0 -39 -33 -71.5t-78 -32.5zM494 1536q-45 0 -78 32.5t-33 71.5q0 41 33 74t78 33t77.5 -33t32.5 -74 q0 -39 -32.5 -71.5t-77.5 -32.5z" />
<glyph unicode="&#xd0;" horiz-adv-x="1589" d="M236 786v537q0 37 22.5 59.5t69.5 22.5h374q174 0 311.5 -50t233.5 -141.5t147.5 -220.5t51.5 -288q0 -160 -51.5 -290t-147.5 -222.5t-233 -142.5t-312 -50h-466v662h-80q-41 0 -57.5 18t-16.5 47q0 18 4 33.5t8 25.5h142zM377 786h346q41 0 56.5 -18t15.5 -47 q0 -41 -13 -59h-405v-541h313q145 0 258 43t189.5 119.5t116.5 185.5t40 238q0 131 -40 237.5t-116.5 182t-189 116.5t-258.5 41h-313v-498z" />
<glyph unicode="&#xd1;" horiz-adv-x="1542" d="M1167 0q-53 82 -121.5 190.5t-144.5 226.5t-154.5 240.5t-152.5 234.5t-137.5 205t-110.5 154v-1251h-141v1323q0 35 28.5 58.5t75.5 23.5q41 0 72 -15.5t47 -27.5q33 -43 86 -119t118.5 -173t139.5 -208.5t147.5 -227.5t145.5 -228.5t131 -208.5v1134q0 33 17.5 53.5 t56.5 20.5q23 0 40 -6t27 -13v-1386h-170zM964 1550q-43 0 -82 10.5t-73 22.5q-37 12 -70 23.5t-61 11.5q-35 0 -50.5 -20.5t-25.5 -59.5l-111 16q6 33 18.5 68t35 62.5t55 45t80.5 17.5q43 0 82.5 -10.5t74.5 -22.5q37 -12 69 -22.5t60 -10.5q35 0 50.5 19.5t25.5 58.5 l113 -16q-6 -35 -19.5 -70t-36 -62.5t-56.5 -44t-79 -16.5z" />
<glyph unicode="&#xd2;" horiz-adv-x="1703" d="M1561 705q0 -158 -53.5 -293.5t-147.5 -234.5t-224 -156.5t-284 -57.5t-284 57.5t-224 156.5t-147.5 234.5t-53.5 293.5q0 156 53.5 290.5t147.5 234t224 156t284 56.5t284 -56.5t224 -156t147.5 -234t53.5 -290.5zM1409 705q0 131 -41 243.5t-114.5 194.5t-176 128 t-225.5 46t-225.5 -46t-176 -128t-114.5 -194.5t-41 -243.5q0 -133 41 -246t114.5 -195t176 -129t225.5 -47t225.5 47t176 129t114.5 195t41 246zM641 1693q0 35 26.5 67t81.5 32q23 0 40.5 -7.5t41.5 -23.5l246 -162l-57 -88z" />
<glyph unicode="&#xd3;" horiz-adv-x="1703" d="M1561 705q0 -158 -53.5 -293.5t-147.5 -234.5t-224 -156.5t-284 -57.5t-284 57.5t-224 156.5t-147.5 234.5t-53.5 293.5q0 156 53.5 290.5t147.5 234t224 156t284 56.5t284 -56.5t224 -156t147.5 -234t53.5 -290.5zM1409 705q0 131 -41 243.5t-114.5 194.5t-176 128 t-225.5 46t-225.5 -46t-176 -128t-114.5 -194.5t-41 -243.5q0 -133 41 -246t114.5 -195t176 -129t225.5 -47t225.5 47t176 129t114.5 195t41 246zM702 1511l-57 88l246 162q25 16 42 23.5t40 7.5q55 0 81.5 -32t26.5 -67z" />
<glyph unicode="&#xd4;" horiz-adv-x="1703" d="M1561 705q0 -158 -53.5 -293.5t-147.5 -234.5t-224 -156.5t-284 -57.5t-284 57.5t-224 156.5t-147.5 234.5t-53.5 293.5q0 156 53.5 290.5t147.5 234t224 156t284 56.5t284 -56.5t224 -156t147.5 -234t53.5 -290.5zM1409 705q0 131 -41 243.5t-114.5 194.5t-176 128 t-225.5 46t-225.5 -46t-176 -128t-114.5 -194.5t-41 -243.5q0 -133 41 -246t114.5 -195t176 -129t225.5 -47t225.5 47t176 129t114.5 195t41 246zM1173 1583l-55 -70l-258 129l-260 -129l-55 70l200 149q31 23 56.5 41.5t58.5 18.5t58.5 -18.5t56.5 -41.5z" />
<glyph unicode="&#xd5;" horiz-adv-x="1703" d="M1561 705q0 -158 -53.5 -293.5t-147.5 -234.5t-224 -156.5t-284 -57.5t-284 57.5t-224 156.5t-147.5 234.5t-53.5 293.5q0 156 53.5 290.5t147.5 234t224 156t284 56.5t284 -56.5t224 -156t147.5 -234t53.5 -290.5zM1409 705q0 131 -41 243.5t-114.5 194.5t-176 128 t-225.5 46t-225.5 -46t-176 -128t-114.5 -194.5t-41 -243.5q0 -133 41 -246t114.5 -195t176 -129t225.5 -47t225.5 47t176 129t114.5 195t41 246zM1018 1550q-43 0 -82 10.5t-73 22.5q-37 12 -70 23.5t-61 11.5q-35 0 -50.5 -20.5t-25.5 -59.5l-111 16q6 33 18.5 68t35 62.5 t55 45t80.5 17.5q43 0 82.5 -10.5t74.5 -22.5q37 -12 69 -22.5t60 -10.5q35 0 50.5 19.5t25.5 58.5l113 -16q-6 -35 -19.5 -70t-36 -62.5t-56.5 -44t-79 -16.5z" />
<glyph unicode="&#xd6;" horiz-adv-x="1703" d="M1561 705q0 -158 -53.5 -293.5t-147.5 -234.5t-224 -156.5t-284 -57.5t-284 57.5t-224 156.5t-147.5 234.5t-53.5 293.5q0 156 53.5 290.5t147.5 234t224 156t284 56.5t284 -56.5t224 -156t147.5 -234t53.5 -290.5zM1409 705q0 131 -41 243.5t-114.5 194.5t-176 128 t-225.5 46t-225.5 -46t-176 -128t-114.5 -194.5t-41 -243.5q0 -133 41 -246t114.5 -195t176 -129t225.5 -47t225.5 47t176 129t114.5 195t41 246zM672 1536q-43 0 -76.5 32.5t-33.5 71.5q0 41 33.5 74t76.5 33q45 0 78 -33t33 -74q0 -39 -33 -71.5t-78 -32.5zM1074 1536 q-45 0 -78 32.5t-33 71.5q0 41 33 74t78 33t77.5 -33t32.5 -74q0 -39 -32.5 -71.5t-77.5 -32.5z" />
<glyph unicode="&#xd7;" horiz-adv-x="1335" d="M584 694l-287 285q-27 27 -27 49q0 23 25 47q12 10 25.5 18.5t23.5 12.5l324 -328l284 287q27 27 52 27q23 0 45 -23q10 -12 18 -25.5t12 -23.5l-329 -326l288 -282q25 -25 25 -50t-21 -45q-14 -12 -27.5 -20t-23.5 -12l-323 327l-283 -286q-23 -25 -49 -25q-25 0 -45 21 q-12 12 -20.5 26t-12.5 25z" />
<glyph unicode="&#xd8;" horiz-adv-x="1703" d="M317 -160l132 246q-141 98 -223.5 259t-82.5 360q0 156 53.5 290.5t147.5 234t224 156t284 56.5q164 0 297 -64l63 119q16 33 34 51.5t59 18.5q23 0 47 -9.5t30 -15.5l-122 -227q141 -98 221 -255t80 -355q0 -158 -53.5 -293.5t-147.5 -234.5t-224 -156.5t-284 -57.5 q-156 0 -293 60l-98 -183h-144zM295 705q0 -160 56.5 -288t160.5 -214l575 1063q-102 51 -235 51q-123 0 -225.5 -46t-176 -128t-114.5 -194.5t-41 -243.5zM1409 705q0 156 -56.5 281.5t-156.5 211.5l-575 -1061q104 -49 231 -49q123 0 225.5 47t176 129t114.5 195t41 246z " />
<glyph unicode="&#xd9;" horiz-adv-x="1585" d="M1253 1331q0 33 17.5 53.5t58.5 20.5q20 0 37.5 -5t28.5 -11v-760q0 -317 -145.5 -491.5t-458.5 -174.5t-457 174t-144 492v702q0 33 17.5 53.5t58.5 20.5q20 0 38 -5t28 -11v-750q0 -139 24.5 -241.5t78.5 -172t142.5 -103.5t215.5 -34q252 0 356 137t104 414v692z M572 1693q0 35 26.5 67t81.5 32q23 0 40.5 -7.5t41.5 -23.5l246 -162l-57 -88z" />
<glyph unicode="&#xda;" horiz-adv-x="1585" d="M1253 1331q0 33 17.5 53.5t58.5 20.5q20 0 37.5 -5t28.5 -11v-760q0 -317 -145.5 -491.5t-458.5 -174.5t-457 174t-144 492v702q0 33 17.5 53.5t58.5 20.5q20 0 38 -5t28 -11v-750q0 -139 24.5 -241.5t78.5 -172t142.5 -103.5t215.5 -34q252 0 356 137t104 414v692z M702 1511l-57 88l246 162q25 16 42 23.5t40 7.5q55 0 81.5 -32t26.5 -67z" />
<glyph unicode="&#xdb;" horiz-adv-x="1585" d="M1253 1331q0 33 17.5 53.5t58.5 20.5q20 0 37.5 -5t28.5 -11v-760q0 -317 -145.5 -491.5t-458.5 -174.5t-457 174t-144 492v702q0 33 17.5 53.5t58.5 20.5q20 0 38 -5t28 -11v-750q0 -139 24.5 -241.5t78.5 -172t142.5 -103.5t215.5 -34q252 0 356 137t104 414v692z M1136 1583l-55 -70l-258 129l-260 -129l-55 70l200 149q31 23 56.5 41.5t58.5 18.5t58.5 -18.5t56.5 -41.5z" />
<glyph unicode="&#xdc;" horiz-adv-x="1585" d="M1253 1331q0 33 17.5 53.5t58.5 20.5q20 0 37.5 -5t28.5 -11v-760q0 -317 -145.5 -491.5t-458.5 -174.5t-457 174t-144 492v702q0 33 17.5 53.5t58.5 20.5q20 0 38 -5t28 -11v-750q0 -139 24.5 -241.5t78.5 -172t142.5 -103.5t215.5 -34q252 0 356 137t104 414v692z M620 1536q-43 0 -76.5 32.5t-33.5 71.5q0 41 33.5 74t76.5 33q45 0 78 -33t33 -74q0 -39 -33 -71.5t-78 -32.5zM1022 1536q-45 0 -78 32.5t-33 71.5q0 41 33 74t78 33t77.5 -33t32.5 -74q0 -39 -32.5 -71.5t-77.5 -32.5z" />
<glyph unicode="&#xdd;" horiz-adv-x="1343" d="M1278 1376q-23 -39 -58.5 -99t-81.5 -133t-97.5 -154t-105.5 -160.5t-106.5 -154.5t-99.5 -134v-541h-143v545q-53 66 -122 159t-137.5 189t-128 182t-92.5 135q-33 47 -50 78t-17 53q0 23 14.5 43.5t52.5 20.5q23 0 35.5 -5t20.5 -9q31 -45 88 -133.5t128 -191.5 t145.5 -209.5t142.5 -188.5q74 98 144.5 207.5t129.5 207t103 171t67 102.5q18 23 37.5 36t52.5 13q35 0 54.5 -12.5t23.5 -16.5zM612 1544l-59 78l211 172q25 20 42 27.5t39 7.5q45 0 67 -31t24 -57z" />
<glyph unicode="&#xde;" horiz-adv-x="1243" d="M662 1139q117 0 204.5 -32t146 -89t88 -135t29.5 -172q0 -88 -34.5 -168t-101 -139.5t-164 -95.5t-222.5 -36q-123 0 -183 10.5t-81 14.5v-297h-139v1331q0 33 17.5 53.5t58.5 20.5q20 0 36.5 -5t26.5 -11v-250h318zM563 393q219 0 317.5 85t98.5 233q0 145 -82 226 t-283 81h-270v-598q23 -6 81 -16.5t138 -10.5z" />
<glyph unicode="&#xdf;" horiz-adv-x="1378" d="M588 893h106q76 0 129.5 24.5t86 62.5t47 85t14.5 92q0 41 -18.5 84t-56.5 79t-98.5 58.5t-142.5 22.5q-98 0 -163.5 -27.5t-104.5 -76t-55.5 -112t-16.5 -134.5v-1051h-135v1069q0 221 126 330.5t349 109.5q125 0 212 -33.5t140.5 -86t78 -114t24.5 -118.5 q0 -47 -14.5 -93t-39 -86t-57 -70.5t-69.5 -47.5q147 -41 236 -147.5t89 -280.5q0 -100 -36.5 -184t-102 -145.5t-156 -96.5t-196.5 -35q-53 0 -102.5 7.5t-88 17.5t-66.5 20.5t-38 16.5l45 106q6 -6 29.5 -14t59.5 -15.5t78 -13.5t83 -6q78 0 141.5 25.5t109.5 70.5 t70.5 107.5t24.5 138.5q0 88 -28.5 152.5t-78 107.5t-117 63.5t-143.5 20.5h-155v117z" />
<glyph unicode="&#xe0;" horiz-adv-x="1200" d="M887 506q-10 2 -41 5t-72 6t-89 5t-91 2q-154 0 -244 -49t-90 -176q0 -111 74 -166t264 -55q131 0 198.5 10t90.5 18v400zM532 928q-117 0 -181 -30t-91 -54q-14 10 -25.5 29.5t-11.5 41.5q0 23 11.5 39.5t27.5 28.5q20 16 82 36.5t180 20.5q246 0 371 -100t125 -324 v-612q-59 -10 -159.5 -21.5t-266.5 -11.5q-158 0 -251 31t-142 78t-63.5 105.5t-14.5 113.5q0 70 21.5 131.5t73.5 107.5t141.5 71.5t222.5 25.5q45 0 92 -2t88 -4t73.5 -4t51.5 -2v4q0 147 -82.5 224t-272.5 77zM390 1348q2 27 23.5 57.5t66.5 30.5q23 0 40 -7.5t42 -27.5 l211 -172l-60 -78z" />
<glyph unicode="&#xe1;" horiz-adv-x="1200" d="M887 506q-10 2 -41 5t-72 6t-89 5t-91 2q-154 0 -244 -49t-90 -176q0 -111 74 -166t264 -55q131 0 198.5 10t90.5 18v400zM532 928q-117 0 -181 -30t-91 -54q-14 10 -25.5 29.5t-11.5 41.5q0 23 11.5 39.5t27.5 28.5q20 16 82 36.5t180 20.5q246 0 371 -100t125 -324 v-612q-59 -10 -159.5 -21.5t-266.5 -11.5q-158 0 -251 31t-142 78t-63.5 105.5t-14.5 113.5q0 70 21.5 131.5t73.5 107.5t141.5 71.5t222.5 25.5q45 0 92 -2t88 -4t73.5 -4t51.5 -2v4q0 147 -82.5 224t-272.5 77zM553 1151l-59 78l211 172q25 20 42 27.5t39 7.5q45 0 67 -31 t24 -57z" />
<glyph unicode="&#xe2;" horiz-adv-x="1200" d="M887 506q-10 2 -41 5t-72 6t-89 5t-91 2q-154 0 -244 -49t-90 -176q0 -111 74 -166t264 -55q131 0 198.5 10t90.5 18v400zM532 928q-117 0 -181 -30t-91 -54q-14 10 -25.5 29.5t-11.5 41.5q0 23 11.5 39.5t27.5 28.5q20 16 82 36.5t180 20.5q246 0 371 -100t125 -324 v-612q-59 -10 -159.5 -21.5t-266.5 -11.5q-158 0 -251 31t-142 78t-63.5 105.5t-14.5 113.5q0 70 21.5 131.5t73.5 107.5t141.5 71.5t222.5 25.5q45 0 92 -2t88 -4t73.5 -4t51.5 -2v4q0 147 -82.5 224t-272.5 77zM621 1442q29 0 50.5 -17.5t47.5 -40.5l185 -167l-66 -66 l-217 152l-217 -152l-66 66l183 167q27 25 49 41.5t51 16.5z" />
<glyph unicode="&#xe3;" horiz-adv-x="1200" d="M887 506q-10 2 -41 5t-72 6t-89 5t-91 2q-154 0 -244 -49t-90 -176q0 -111 74 -166t264 -55q131 0 198.5 10t90.5 18v400zM532 928q-117 0 -181 -30t-91 -54q-14 10 -25.5 29.5t-11.5 41.5q0 23 11.5 39.5t27.5 28.5q20 16 82 36.5t180 20.5q246 0 371 -100t125 -324 v-612q-59 -10 -159.5 -21.5t-266.5 -11.5q-158 0 -251 31t-142 78t-63.5 105.5t-14.5 113.5q0 70 21.5 131.5t73.5 107.5t141.5 71.5t222.5 25.5q45 0 92 -2t88 -4t73.5 -4t51.5 -2v4q0 147 -82.5 224t-272.5 77zM569 1239q-25 8 -48.5 15.5t-47.5 7.5q-39 0 -54.5 -20.5 t-25.5 -59.5l-105 16q6 33 19.5 66.5t35 60.5t54.5 43t78 16q41 0 76.5 -8t64.5 -18l43 -15q20 -6 48 -15t56 -9q37 0 53.5 19.5t26.5 58.5l105 -17q-6 -35 -19.5 -67.5t-36 -59t-55.5 -43t-76 -16.5q-41 0 -77.5 9t-65.5 20z" />
<glyph unicode="&#xe4;" horiz-adv-x="1200" d="M887 506q-10 2 -41 5t-72 6t-89 5t-91 2q-154 0 -244 -49t-90 -176q0 -111 74 -166t264 -55q131 0 198.5 10t90.5 18v400zM532 928q-117 0 -181 -30t-91 -54q-14 10 -25.5 29.5t-11.5 41.5q0 23 11.5 39.5t27.5 28.5q20 16 82 36.5t180 20.5q246 0 371 -100t125 -324 v-612q-59 -10 -159.5 -21.5t-266.5 -11.5q-158 0 -251 31t-142 78t-63.5 105.5t-14.5 113.5q0 70 21.5 131.5t73.5 107.5t141.5 71.5t222.5 25.5q45 0 92 -2t88 -4t73.5 -4t51.5 -2v4q0 147 -82.5 224t-272.5 77zM439 1180q-41 0 -74 31.5t-33 70.5t33 70.5t74 31.5 q43 0 74.5 -31.5t31.5 -70.5t-31.5 -70.5t-74.5 -31.5zM801 1180q-43 0 -74.5 31.5t-31.5 70.5t31.5 70.5t74.5 31.5t75 -31.5t32 -70.5t-32 -70.5t-75 -31.5z" />
<glyph unicode="&#xe5;" horiz-adv-x="1200" d="M887 506q-10 2 -41 5t-72 6t-89 5t-91 2q-154 0 -244 -49t-90 -176q0 -111 74 -166t264 -55q131 0 198.5 10t90.5 18v400zM532 928q-117 0 -181 -30t-91 -54q-14 10 -25.5 29.5t-11.5 41.5q0 23 11.5 39.5t27.5 28.5q20 16 82 36.5t180 20.5q246 0 371 -100t125 -324 v-612q-59 -10 -159.5 -21.5t-266.5 -11.5q-158 0 -251 31t-142 78t-63.5 105.5t-14.5 113.5q0 70 21.5 131.5t73.5 107.5t141.5 71.5t222.5 25.5q45 0 92 -2t88 -4t73.5 -4t51.5 -2v4q0 147 -82.5 224t-272.5 77zM410 1337q0 43 16.5 80t45 65.5t67.5 45t82 16.5t82 -16.5 t67.5 -45t45 -65.5t16.5 -80t-16.5 -79.5t-45 -65.5t-67.5 -45.5t-82 -16.5t-82 16.5t-67.5 45.5t-45 65.5t-16.5 79.5zM504 1337q0 -51 33 -85.5t84 -34.5t84 34.5t33 85.5t-33 86t-84 35t-84 -35t-33 -86z" />
<glyph unicode="&#xe6;" horiz-adv-x="1941" d="M940 205q-18 29 -44 95.5t-26 182.5v25q-18 2 -50 5t-69.5 5t-78.5 4t-78 2q-154 0 -244 -49t-90 -176q0 -111 74 -166t239 -55q86 0 152 17.5t112 40t71.5 43t31.5 26.5zM1012 111q-4 -4 -33 -27t-82 -47.5t-134 -45t-188 -20.5q-150 0 -238.5 31t-136.5 78t-62.5 105.5 t-14.5 113.5q0 70 21.5 131.5t73.5 107.5t141.5 71.5t222.5 25.5q92 0 178 -4t127 -8q0 154 -84 229.5t-271 75.5q-117 0 -181 -30t-91 -54q-14 10 -25.5 29.5t-11.5 41.5q0 23 11.5 39.5t27.5 28.5q20 16 82 36.5t180 20.5q174 0 291 -50t164 -167q66 104 174.5 160.5 t239.5 56.5q209 0 317.5 -100t108.5 -281q0 -111 -58.5 -171t-189.5 -60h-551q20 -174 117.5 -255t269.5 -81q100 0 180 27.5t117 50.5l55 -100q-16 -10 -50 -27.5t-82 -33t-108.5 -27t-129.5 -11.5q-86 0 -152 17.5t-111 41t-73.5 47.5t-40.5 34zM1516 537q82 0 126 26.5 t44 112.5q0 49 -15.5 95t-49.5 81t-90 56.5t-136 21.5q-90 0 -160 -35t-117 -90t-72.5 -126t-27.5 -142h498z" />
<glyph unicode="&#xe7;" horiz-adv-x="1038" d="M668 90q92 0 156.5 24.5t93.5 41.5l55 -101q-35 -23 -117 -53.5t-207 -30.5q-115 0 -210 35t-164.5 102.5t-108.5 165t-39 224.5q0 129 41 229t113.5 170t169 106.5t206.5 36.5q68 0 118 -9t85 -20.5t54.5 -23.5t27.5 -18q14 -10 24.5 -25.5t10.5 -38.5 q0 -16 -11.5 -38.5t-33.5 -39.5q-14 12 -38 28.5t-58.5 32t-79.5 26t-101 10.5q-78 0 -147.5 -25t-121.5 -77t-83 -131t-31 -185q0 -111 31 -189.5t84 -129t125 -74t156 -23.5zM561 -86q31 -2 63.5 -13.5t60.5 -31t46 -50t18 -73.5q0 -86 -54 -132t-148 -46q-78 0 -126 19.5 t-52 23.5l38 82q4 -4 41 -20.5t88 -16.5q43 0 72 17.5t29 64.5q0 25 -11.5 41t-27.5 26.5t-34.5 14.5t-31.5 4z" />
<glyph unicode="&#xe8;" horiz-adv-x="1198" d="M276 428q20 -174 118 -255t270 -81q100 0 180 27.5t117 50.5l55 -100q-16 -10 -50 -27.5t-82 -33t-108.5 -27t-130.5 -11.5q-109 0 -203 33t-163.5 97.5t-110.5 159.5t-41 222q0 123 40 225.5t109.5 176t166 114.5t206.5 41q209 0 317.5 -100t108.5 -281 q0 -111 -58.5 -171t-189.5 -60h-551zM772 537q82 0 126 26.5t44 112.5q0 49 -15.5 95t-49 81t-90 56.5t-136.5 21.5q-90 0 -159.5 -35t-116.5 -90t-73 -126t-28 -142h498zM428 1348q2 27 23.5 57.5t66.5 30.5q23 0 40 -7.5t42 -27.5l211 -172l-60 -78z" />
<glyph unicode="&#xe9;" horiz-adv-x="1198" d="M276 428q20 -174 118 -255t270 -81q100 0 180 27.5t117 50.5l55 -100q-16 -10 -50 -27.5t-82 -33t-108.5 -27t-130.5 -11.5q-109 0 -203 33t-163.5 97.5t-110.5 159.5t-41 222q0 123 40 225.5t109.5 176t166 114.5t206.5 41q209 0 317.5 -100t108.5 -281 q0 -111 -58.5 -171t-189.5 -60h-551zM772 537q82 0 126 26.5t44 112.5q0 49 -15.5 95t-49 81t-90 56.5t-136.5 21.5q-90 0 -159.5 -35t-116.5 -90t-73 -126t-28 -142h498zM586 1151l-59 78l211 172q25 20 42 27.5t39 7.5q45 0 67 -31t24 -57z" />
<glyph unicode="&#xea;" horiz-adv-x="1198" d="M276 428q20 -174 118 -255t270 -81q100 0 180 27.5t117 50.5l55 -100q-16 -10 -50 -27.5t-82 -33t-108.5 -27t-130.5 -11.5q-109 0 -203 33t-163.5 97.5t-110.5 159.5t-41 222q0 123 40 225.5t109.5 176t166 114.5t206.5 41q209 0 317.5 -100t108.5 -281 q0 -111 -58.5 -171t-189.5 -60h-551zM772 537q82 0 126 26.5t44 112.5q0 49 -15.5 95t-49 81t-90 56.5t-136.5 21.5q-90 0 -159.5 -35t-116.5 -90t-73 -126t-28 -142h498zM659 1442q29 0 50.5 -17.5t47.5 -40.5l185 -167l-66 -66l-217 152l-217 -152l-66 66l183 167 q27 25 49 41.5t51 16.5z" />
<glyph unicode="&#xeb;" horiz-adv-x="1198" d="M276 428q20 -174 118 -255t270 -81q100 0 180 27.5t117 50.5l55 -100q-16 -10 -50 -27.5t-82 -33t-108.5 -27t-130.5 -11.5q-109 0 -203 33t-163.5 97.5t-110.5 159.5t-41 222q0 123 40 225.5t109.5 176t166 114.5t206.5 41q209 0 317.5 -100t108.5 -281 q0 -111 -58.5 -171t-189.5 -60h-551zM772 537q82 0 126 26.5t44 112.5q0 49 -15.5 95t-49 81t-90 56.5t-136.5 21.5q-90 0 -159.5 -35t-116.5 -90t-73 -126t-28 -142h498zM480 1180q-41 0 -74 31.5t-33 70.5t33 70.5t74 31.5q43 0 74.5 -31.5t31.5 -70.5t-31.5 -70.5 t-74.5 -31.5zM842 1180q-43 0 -74.5 31.5t-31.5 70.5t31.5 70.5t74.5 31.5t75 -31.5t32 -70.5t-32 -70.5t-75 -31.5z" />
<glyph unicode="&#xec;" horiz-adv-x="536" d="M201 942q0 31 17.5 50.5t55.5 19.5q18 0 36 -5.5t26 -9.5v-997h-135v942zM66 1348q2 27 23.5 57.5t66.5 30.5q23 0 40 -7.5t42 -27.5l211 -172l-60 -78z" />
<glyph unicode="&#xed;" horiz-adv-x="536" d="M201 942q0 31 17.5 50.5t55.5 19.5q18 0 36 -5.5t26 -9.5v-997h-135v942zM186 1151l-59 78l211 172q25 20 42 27.5t39 7.5q45 0 67 -31t24 -57z" />
<glyph unicode="&#xee;" horiz-adv-x="536" d="M201 942q0 31 17.5 50.5t55.5 19.5q18 0 36 -5.5t26 -9.5v-997h-135v942zM285 1442q29 0 50.5 -17.5t47.5 -40.5l185 -167l-66 -66l-217 152l-217 -152l-66 66l183 167q27 25 49 41.5t51 16.5z" />
<glyph unicode="&#xef;" horiz-adv-x="536" d="M201 942q0 31 17.5 50.5t55.5 19.5q18 0 36 -5.5t26 -9.5v-997h-135v942zM105 1180q-41 0 -74 31.5t-33 70.5t33 70.5t74 31.5q43 0 74.5 -31.5t31.5 -70.5t-31.5 -70.5t-74.5 -31.5zM467 1180q-43 0 -74.5 31.5t-31.5 70.5t31.5 70.5t74.5 31.5t75 -31.5t32 -70.5 t-32 -70.5t-75 -31.5z" />
<glyph unicode="&#xf0;" horiz-adv-x="1302" d="M997 1423l-174 -102q160 -129 256.5 -319.5t96.5 -450.5q0 -289 -138.5 -434.5t-386.5 -145.5q-123 0 -220 39t-164.5 106.5t-103.5 161t-36 201.5q0 111 36 204t102.5 160.5t159.5 105.5t210 38t208 -44t144 -109q-31 123 -103.5 229t-176.5 188l-291 -170l-49 86 l249 148q-92 57 -196 92l43 102q72 -23 140.5 -53.5t131.5 -71.5l213 125zM651 872q-90 0 -160.5 -28.5t-118.5 -80.5t-74 -124t-26 -160q0 -86 26 -157.5t75 -124t118.5 -81t159.5 -28.5t161 28.5t119 81t73.5 124t25.5 157.5q0 88 -25.5 160t-73.5 124t-119 80.5 t-161 28.5z" />
<glyph unicode="&#xf1;" horiz-adv-x="1275" d="M961 0v565q0 172 -85 265.5t-276 93.5q-61 0 -111.5 -7.5t-87 -16.5t-58 -18.5t-28.5 -11.5v-870h-135v961q6 2 40 15t91.5 27.5t135 25.5t171.5 11q113 0 201 -30.5t149.5 -86t94.5 -131t33 -165.5v-627h-135zM588 1239q-25 8 -48.5 15.5t-47.5 7.5q-39 0 -54.5 -20.5 t-25.5 -59.5l-105 16q6 33 19.5 66.5t35 60.5t54.5 43t78 16q41 0 76.5 -8t64.5 -18l43 -15q20 -6 48 -15t56 -9q37 0 53.5 19.5t26.5 58.5l105 -17q-6 -35 -19.5 -67.5t-36 -59t-55.5 -43t-76 -16.5q-41 0 -77.5 9t-65.5 20z" />
<glyph unicode="&#xf2;" horiz-adv-x="1302" d="M1176 506q0 -117 -40 -215t-110 -169t-166 -111t-209 -40t-209 40t-165.5 111t-109.5 169t-40 215t40 215t109.5 169t166 110.5t208.5 39.5q113 0 209 -39.5t166 -110.5t110 -169t40 -215zM272 506q0 -94 27 -171t77 -132.5t119.5 -86t155.5 -30.5t156 30.5t120 86 t76.5 132.5t26.5 171t-26.5 171t-76.5 132t-120 86t-156 31t-155.5 -31t-119.5 -86t-77 -132t-27 -171zM420 1348q2 27 23.5 57.5t66.5 30.5q23 0 40 -7.5t42 -27.5l211 -172l-60 -78z" />
<glyph unicode="&#xf3;" horiz-adv-x="1302" d="M1176 506q0 -117 -40 -215t-110 -169t-166 -111t-209 -40t-209 40t-165.5 111t-109.5 169t-40 215t40 215t109.5 169t166 110.5t208.5 39.5q113 0 209 -39.5t166 -110.5t110 -169t40 -215zM272 506q0 -94 27 -171t77 -132.5t119.5 -86t155.5 -30.5t156 30.5t120 86 t76.5 132.5t26.5 171t-26.5 171t-76.5 132t-120 86t-156 31t-155.5 -31t-119.5 -86t-77 -132t-27 -171zM604 1151l-59 78l211 172q25 20 42 27.5t39 7.5q45 0 67 -31t24 -57z" />
<glyph unicode="&#xf4;" horiz-adv-x="1302" d="M1176 506q0 -117 -40 -215t-110 -169t-166 -111t-209 -40t-209 40t-165.5 111t-109.5 169t-40 215t40 215t109.5 169t166 110.5t208.5 39.5q113 0 209 -39.5t166 -110.5t110 -169t40 -215zM272 506q0 -94 27 -171t77 -132.5t119.5 -86t155.5 -30.5t156 30.5t120 86 t76.5 132.5t26.5 171t-26.5 171t-76.5 132t-120 86t-156 31t-155.5 -31t-119.5 -86t-77 -132t-27 -171zM651 1442q29 0 50.5 -17.5t47.5 -40.5l185 -167l-66 -66l-217 152l-217 -152l-66 66l183 167q27 25 49 41.5t51 16.5z" />
<glyph unicode="&#xf5;" horiz-adv-x="1302" d="M1176 506q0 -117 -40 -215t-110 -169t-166 -111t-209 -40t-209 40t-165.5 111t-109.5 169t-40 215t40 215t109.5 169t166 110.5t208.5 39.5q113 0 209 -39.5t166 -110.5t110 -169t40 -215zM272 506q0 -94 27 -171t77 -132.5t119.5 -86t155.5 -30.5t156 30.5t120 86 t76.5 132.5t26.5 171t-26.5 171t-76.5 132t-120 86t-156 31t-155.5 -31t-119.5 -86t-77 -132t-27 -171zM600 1239q-25 8 -48.5 15.5t-47.5 7.5q-39 0 -54.5 -20.5t-25.5 -59.5l-105 16q6 33 19.5 66.5t35 60.5t54.5 43t78 16q41 0 76.5 -8t64.5 -18l43 -15q20 -6 48 -15 t56 -9q37 0 53.5 19.5t26.5 58.5l105 -17q-6 -35 -19.5 -67.5t-36 -59t-55.5 -43t-76 -16.5q-41 0 -77.5 9t-65.5 20z" />
<glyph unicode="&#xf6;" horiz-adv-x="1302" d="M1176 506q0 -117 -40 -215t-110 -169t-166 -111t-209 -40t-209 40t-165.5 111t-109.5 169t-40 215t40 215t109.5 169t166 110.5t208.5 39.5q113 0 209 -39.5t166 -110.5t110 -169t40 -215zM272 506q0 -94 27 -171t77 -132.5t119.5 -86t155.5 -30.5t156 30.5t120 86 t76.5 132.5t26.5 171t-26.5 171t-76.5 132t-120 86t-156 31t-155.5 -31t-119.5 -86t-77 -132t-27 -171zM469 1180q-41 0 -74 31.5t-33 70.5t33 70.5t74 31.5q43 0 74.5 -31.5t31.5 -70.5t-31.5 -70.5t-74.5 -31.5zM831 1180q-43 0 -74.5 31.5t-31.5 70.5t31.5 70.5 t74.5 31.5t75 -31.5t32 -70.5t-32 -70.5t-75 -31.5z" />
<glyph unicode="&#xf7;" horiz-adv-x="1304" d="M190 633q-39 0 -54 18.5t-15 46.5q0 16 4 31.5t8 26.5h981q39 0 54.5 -18.5t15.5 -45.5q0 -18 -4 -33.5t-9 -25.5h-981zM776 326q0 -51 -34.5 -87t-84.5 -36q-51 0 -86.5 35.5t-35.5 87.5q0 49 35.5 83.5t86.5 34.5q49 0 84 -34.5t35 -83.5zM776 1065q0 -51 -34.5 -87 t-84.5 -36q-51 0 -86.5 36t-35.5 87q0 49 35.5 84t86.5 35q49 0 84 -35t35 -84z" />
<glyph unicode="&#xf8;" horiz-adv-x="1302" d="M348 59q-104 72 -162.5 185.5t-58.5 261.5q0 117 40 215t109.5 169t166 110.5t208.5 39.5q109 0 209 -41l41 76q16 29 31.5 46.5t46.5 17.5q23 0 45.5 -9.5t28.5 -15.5l-92 -168q98 -72 156.5 -184.5t58.5 -255.5q0 -117 -40 -215t-110 -169t-166 -111t-209 -40 q-55 0 -106 10.5t-99 26.5l-71 -133h-127zM272 506q0 -223 136 -336l395 727q-74 29 -152 29q-86 0 -155.5 -31t-119.5 -86t-77 -132t-27 -171zM1030 506q0 104 -34.5 189t-96.5 141l-395 -723q61 -27 147 -27t156 30.5t120 86t76.5 132.5t26.5 171z" />
<glyph unicode="&#xf9;" horiz-adv-x="1257" d="M942 942q0 31 17.5 50.5t56.5 19.5q18 0 35.5 -5.5t25.5 -9.5v-997q-20 -4 -58 -9t-86 -10.5t-104.5 -8.5t-111.5 -3q-188 0 -300 52.5t-173 148.5q-63 106 -64 268v504q0 31 17.5 50.5t56.5 19.5q18 0 35.5 -5.5t25.5 -9.5v-544q0 -92 20.5 -161t69 -114t125 -67.5 t189.5 -22.5q86 0 146.5 7t76.5 11v836zM402 1348q2 27 23.5 57.5t66.5 30.5q23 0 40 -7.5t42 -27.5l211 -172l-60 -78z" />
<glyph unicode="&#xfa;" horiz-adv-x="1257" d="M942 942q0 31 17.5 50.5t56.5 19.5q18 0 35.5 -5.5t25.5 -9.5v-997q-20 -4 -58 -9t-86 -10.5t-104.5 -8.5t-111.5 -3q-188 0 -300 52.5t-173 148.5q-63 106 -64 268v504q0 31 17.5 50.5t56.5 19.5q18 0 35.5 -5.5t25.5 -9.5v-544q0 -92 20.5 -161t69 -114t125 -67.5 t189.5 -22.5q86 0 146.5 7t76.5 11v836zM602 1151l-59 78l211 172q25 20 42 27.5t39 7.5q45 0 67 -31t24 -57z" />
<glyph unicode="&#xfb;" horiz-adv-x="1257" d="M942 942q0 31 17.5 50.5t56.5 19.5q18 0 35.5 -5.5t25.5 -9.5v-997q-20 -4 -58 -9t-86 -10.5t-104.5 -8.5t-111.5 -3q-188 0 -300 52.5t-173 148.5q-63 106 -64 268v504q0 31 17.5 50.5t56.5 19.5q18 0 35.5 -5.5t25.5 -9.5v-544q0 -92 20.5 -161t69 -114t125 -67.5 t189.5 -22.5q86 0 146.5 7t76.5 11v836zM653 1442q29 0 50.5 -17.5t47.5 -40.5l185 -167l-66 -66l-217 152l-217 -152l-66 66l183 167q27 25 49 41.5t51 16.5z" />
<glyph unicode="&#xfc;" horiz-adv-x="1257" d="M942 942q0 31 17.5 50.5t56.5 19.5q18 0 35.5 -5.5t25.5 -9.5v-997q-20 -4 -58 -9t-86 -10.5t-104.5 -8.5t-111.5 -3q-188 0 -300 52.5t-173 148.5q-63 106 -64 268v504q0 31 17.5 50.5t56.5 19.5q18 0 35.5 -5.5t25.5 -9.5v-544q0 -92 20.5 -161t69 -114t125 -67.5 t189.5 -22.5q86 0 146.5 7t76.5 11v836zM471 1180q-41 0 -74 31.5t-33 70.5t33 70.5t74 31.5q43 0 74.5 -31.5t31.5 -70.5t-31.5 -70.5t-74.5 -31.5zM833 1180q-43 0 -74.5 31.5t-31.5 70.5t31.5 70.5t74.5 31.5t75 -31.5t32 -70.5t-32 -70.5t-75 -31.5z" />
<glyph unicode="&#xfd;" horiz-adv-x="1085" d="M582 215q31 59 72.5 147.5t86.5 188.5t88 203.5t78 193.5q10 29 29.5 46.5t54.5 17.5q31 0 50.5 -13.5t23.5 -17.5q-29 -92 -83 -217t-126 -279t-148.5 -303t-162.5 -293q-51 -86 -97.5 -143t-93.5 -92t-98 -49.5t-115 -14.5q-51 0 -89 8.5t-64.5 18.5t-41 19.5 t-16.5 11.5l56 106q10 -8 51 -28.5t104 -20.5q51 0 91 15.5t77 51t73 92t79 136.5l45 86q-18 31 -56 93.5t-85.5 140t-97.5 161.5t-94 159t-77 131t-45 79q-10 23 -20.5 47.5t-10.5 46.5q0 29 15.5 48.5t50.5 19.5q23 0 36 -4t17 -7q8 -18 35 -69t64.5 -121t84 -150.5 t92.5 -162.5t90 -156t77 -127zM506 1151l-59 78l211 172q25 20 42 27.5t39 7.5q45 0 67 -31t24 -57z" />
<glyph unicode="&#xfe;" horiz-adv-x="1286" d="M180 1440q0 31 17.5 50t56.5 19q18 0 35.5 -5t25.5 -9v-491q53 14 118 25t136 11q150 0 261.5 -42t184 -115.5t108.5 -175t36 -220.5q0 -121 -34.5 -215t-98 -159.5t-152 -99t-194.5 -33.5q-96 0 -162.5 21.5t-109.5 49t-64.5 54t-28.5 36.5v-551h-135v1850zM1014 487 q0 98 -25.5 179.5t-80 139.5t-138.5 90t-201 32q-104 0 -171.5 -22.5t-82.5 -28.5v-545q12 -31 34 -71t62 -77t102 -61.5t159 -24.5q166 0 254 98t88 291z" />
<glyph unicode="&#xff;" horiz-adv-x="1085" d="M582 215q31 59 72.5 147.5t86.5 188.5t88 203.5t78 193.5q10 29 29.5 46.5t54.5 17.5q31 0 50.5 -13.5t23.5 -17.5q-29 -92 -83 -217t-126 -279t-148.5 -303t-162.5 -293q-51 -86 -97.5 -143t-93.5 -92t-98 -49.5t-115 -14.5q-51 0 -89 8.5t-64.5 18.5t-41 19.5 t-16.5 11.5l56 106q10 -8 51 -28.5t104 -20.5q51 0 91 15.5t77 51t73 92t79 136.5l45 86q-18 31 -56 93.5t-85.5 140t-97.5 161.5t-94 159t-77 131t-45 79q-10 23 -20.5 47.5t-10.5 46.5q0 29 15.5 48.5t50.5 19.5q23 0 36 -4t17 -7q8 -18 35 -69t64.5 -121t84 -150.5 t92.5 -162.5t90 -156t77 -127zM361 1180q-41 0 -74 31.5t-33 70.5t33 70.5t74 31.5q43 0 74.5 -31.5t31.5 -70.5t-31.5 -70.5t-74.5 -31.5zM723 1180q-43 0 -74.5 31.5t-31.5 70.5t31.5 70.5t74.5 31.5t75 -31.5t32 -70.5t-32 -70.5t-75 -31.5z" />
<glyph unicode="&#x131;" horiz-adv-x="536" d="M201 942q0 31 17.5 50.5t55.5 19.5q18 0 36 -5.5t26 -9.5v-997h-135v942z" />
<glyph unicode="&#x152;" horiz-adv-x="2406" d="M1528 666v-541h719v-125h-863v289q-78 -154 -223 -240t-323 -86q-154 0 -282 55.5t-220 154.5t-142.5 235.5t-50.5 296.5t50.5 295t142.5 233t220 153.5t282 55.5q178 0 323.5 -82t222.5 -236v199q0 37 23 59.5t70 22.5h716q29 0 48.5 -15.5t19.5 -48.5q0 -23 -7 -39 t-11 -22h-715v-489h633q29 0 48 -15.5t19 -48.5q0 -23 -7 -39t-11 -22h-682zM1382 705q0 135 -38.5 247.5t-110.5 193.5t-172 126t-223 45t-222.5 -45t-171 -126t-110.5 -193.5t-39 -247.5t39 -249t110.5 -196t171 -127t222.5 -45t223 45t172 127t110.5 196t38.5 249z" />
<glyph unicode="&#x153;" horiz-adv-x="2088" d="M272 506q0 -94 27 -171t77 -132.5t119.5 -86t155.5 -30.5t156 30.5t120 86t76.5 132.5t26.5 171t-26.5 171t-76.5 132t-120 86t-156 31t-155.5 -31t-119.5 -86t-77 -132t-27 -171zM1087 217q-10 -25 -41.5 -66.5t-85 -81.5t-130 -69t-179.5 -29q-113 0 -209 40 t-165.5 111t-109.5 169t-40 215t40 215t109.5 169t166 110.5t208.5 39.5q104 0 183 -30.5t134.5 -73.5t88.5 -88t47 -72q12 25 44 70t84 88t129 74.5t179 31.5q209 0 317.5 -100t108.5 -281q0 -111 -58.5 -171t-189.5 -60h-551q20 -174 117.5 -255t269.5 -81 q100 0 180.5 27.5t116.5 50.5l56 -100q-16 -10 -50 -27.5t-82.5 -33t-108.5 -27t-130 -11.5q-109 0 -188.5 29t-135 69t-86.5 81.5t-39 66.5zM1663 537q82 0 126 26.5t44 112.5q0 49 -15.5 95t-49 81t-90 56.5t-136.5 21.5q-90 0 -159.5 -35t-116.5 -90t-73 -126t-28 -142 h498z" />
<glyph unicode="&#x178;" horiz-adv-x="1343" d="M1278 1376q-23 -39 -58.5 -99t-81.5 -133t-97.5 -154t-105.5 -160.5t-106.5 -154.5t-99.5 -134v-541h-143v545q-53 66 -122 159t-137.5 189t-128 182t-92.5 135q-33 47 -50 78t-17 53q0 23 14.5 43.5t52.5 20.5q23 0 35.5 -5t20.5 -9q31 -45 88 -133.5t128 -191.5 t145.5 -209.5t142.5 -188.5q74 98 144.5 207.5t129.5 207t103 171t67 102.5q18 23 37.5 36t52.5 13q35 0 54.5 -12.5t23.5 -16.5zM475 1536q-43 0 -76.5 32.5t-33.5 71.5q0 41 33.5 74t76.5 33q45 0 78 -33t33 -74q0 -39 -33 -71.5t-78 -32.5zM877 1536q-45 0 -78 32.5 t-33 71.5q0 41 33 74t78 33t77.5 -33t32.5 -74q0 -39 -32.5 -71.5t-77.5 -32.5z" />
<glyph unicode="&#x2c6;" d="M512 1442q29 0 50.5 -17.5t47.5 -40.5l185 -167l-66 -66l-217 152l-217 -152l-66 66l183 167q27 25 49 41.5t51 16.5z" />
<glyph unicode="&#x2da;" d="M301 1337q0 43 16.5 80t45 65.5t67.5 45t82 16.5t82 -16.5t67.5 -45t45 -65.5t16.5 -80t-16.5 -79.5t-45 -65.5t-67.5 -45.5t-82 -16.5t-82 16.5t-67.5 45.5t-45 65.5t-16.5 79.5zM395 1337q0 -51 33 -85.5t84 -34.5t84 34.5t33 85.5t-33 86t-84 35t-84 -35t-33 -86z" />
<glyph unicode="&#x2dc;" d="M463 1239q-25 8 -48.5 15.5t-47.5 7.5q-39 0 -54.5 -20.5t-25.5 -59.5l-105 16q6 33 19.5 66.5t35 60.5t54.5 43t78 16q41 0 76.5 -8t64.5 -18l43 -15q20 -6 48 -15t56 -9q37 0 53.5 19.5t26.5 58.5l105 -17q-6 -35 -19.5 -67.5t-36 -59t-55.5 -43t-76 -16.5 q-41 0 -77.5 9t-65.5 20z" />
<glyph unicode="&#x2000;" horiz-adv-x="914" />
<glyph unicode="&#x2001;" horiz-adv-x="1829" />
<glyph unicode="&#x2002;" horiz-adv-x="914" />
<glyph unicode="&#x2003;" horiz-adv-x="1829" />
<glyph unicode="&#x2004;" horiz-adv-x="609" />
<glyph unicode="&#x2005;" horiz-adv-x="457" />
<glyph unicode="&#x2006;" horiz-adv-x="304" />
<glyph unicode="&#x2007;" horiz-adv-x="304" />
<glyph unicode="&#x2008;" horiz-adv-x="228" />
<glyph unicode="&#x2009;" horiz-adv-x="365" />
<glyph unicode="&#x200a;" horiz-adv-x="101" />
<glyph unicode="&#x2010;" horiz-adv-x="714" d="M197 481q-41 0 -57.5 24.5t-16.5 55.5t12 66h383q43 0 58.5 -24.5t15.5 -55.5q0 -25 -10 -66h-385z" />
<glyph unicode="&#x2011;" horiz-adv-x="714" d="M197 481q-41 0 -57.5 24.5t-16.5 55.5t12 66h383q43 0 58.5 -24.5t15.5 -55.5q0 -25 -10 -66h-385z" />
<glyph unicode="&#x2012;" horiz-adv-x="714" d="M197 481q-41 0 -57.5 24.5t-16.5 55.5t12 66h383q43 0 58.5 -24.5t15.5 -55.5q0 -25 -10 -66h-385z" />
<glyph unicode="&#x2013;" d="M0 494v120h1024v-120h-1024z" />
<glyph unicode="&#x2014;" horiz-adv-x="1966" d="M0 494v120h1966v-120h-1966z" />
<glyph unicode="&#x2018;" horiz-adv-x="569" d="M440 1448q-4 -6 -26.5 -34t-48 -66.5t-49 -84.5t-29.5 -89q59 -4 90 -36t31 -83q0 -49 -33 -83t-86 -34q-49 0 -89 38t-40 126q0 76 29.5 147.5t66.5 127t69.5 91t39.5 41.5z" />
<glyph unicode="&#x2019;" horiz-adv-x="569" d="M129 999q4 6 26.5 34t48 67t49 85t30.5 89q-59 4 -90 35.5t-31 83.5q0 49 32.5 82.5t86.5 33.5q49 0 89 -37.5t40 -125.5q0 -78 -30 -149t-67 -126t-69.5 -91t-38.5 -42z" />
<glyph unicode="&#x201a;" horiz-adv-x="569" d="M129 -297q4 6 26.5 33.5t48 66.5t49 85t30.5 89q-59 4 -90 36t-31 83q0 49 32.5 83t86.5 34q49 0 89 -38t40 -126q0 -78 -30 -148.5t-67 -126t-69.5 -91t-38.5 -41.5z" />
<glyph unicode="&#x201c;" horiz-adv-x="958" d="M829 1448q-4 -6 -26.5 -34t-48 -66.5t-49 -84.5t-29.5 -89q59 -4 90 -36t31 -83q0 -49 -33 -83t-86 -34q-49 0 -89 38t-40 126q0 76 29.5 147.5t66.5 127t70 91t39 41.5zM440 1448q-4 -6 -26.5 -34t-48 -66.5t-49 -84.5t-29.5 -89q59 -4 90 -36t31 -83q0 -49 -33 -83 t-86 -34q-49 0 -89 38t-40 126q0 76 29.5 147.5t66.5 127t69.5 91t39.5 41.5z" />
<glyph unicode="&#x201d;" horiz-adv-x="958" d="M129 999q4 6 26.5 34t48 67t49 85t30.5 89q-59 4 -90 35.5t-31 83.5q0 49 32.5 82.5t86.5 33.5q49 0 89 -37.5t40 -125.5q0 -78 -30 -149t-67 -126t-69.5 -91t-38.5 -42zM518 999q4 6 26.5 34t48 67t49.5 85t30 89q-59 4 -90 35.5t-31 83.5q0 49 32.5 82.5t86.5 33.5 q49 0 89 -37.5t40 -125.5q0 -78 -30 -149t-66.5 -126t-69.5 -91t-39 -42z" />
<glyph unicode="&#x201e;" d="M129 -297q4 6 26.5 33.5t48 66.5t49 85t30.5 89q-59 4 -90 36t-31 83q0 49 32.5 83t86.5 34q49 0 89 -38t40 -126q0 -78 -30 -148.5t-67 -126t-69.5 -91t-38.5 -41.5zM518 -297q4 6 26.5 33.5t48 66.5t49.5 85t30 89q-59 4 -90 36t-31 83q0 49 32.5 83t86.5 34 q49 0 89 -38t40 -126q0 -78 -30 -148.5t-66.5 -126t-69.5 -91t-39 -41.5z" />
<glyph unicode="&#x2022;" horiz-adv-x="919" d="M461 1069q80 0 146.5 -28.5t115.5 -79t76.5 -118t27.5 -143.5t-27.5 -142t-76.5 -116.5t-115.5 -79t-146.5 -28.5t-147.5 28.5t-117 79t-77 117t-27.5 141.5q0 76 27.5 143.5t77 118t117 79t147.5 28.5z" />
<glyph unicode="&#x2026;" horiz-adv-x="1609" d="M389 94q0 -51 -35 -87t-84 -36q-51 0 -87 36t-36 87q0 49 36 84t87 35q49 0 84 -35t35 -84zM926 94q0 -51 -35 -87t-84 -36q-51 0 -87 36t-36 87q0 49 36 84t87 35q49 0 84 -35t35 -84zM1462 94q0 -51 -34.5 -87t-84.5 -36q-51 0 -86.5 36t-35.5 87q0 49 35.5 84t86.5 35 q49 0 84 -35t35 -84z" />
<glyph unicode="&#x202f;" horiz-adv-x="365" />
<glyph unicode="&#x2039;" horiz-adv-x="587" d="M104 432q-10 10 -19 27.5t-9 34.5q0 12 1 19t3 11l344 402l90 -72l-305 -358l305 -338l-90 -72z" />
<glyph unicode="&#x203a;" horiz-adv-x="587" d="M485 580q10 -10 19.5 -27.5t9.5 -34.5q0 -12 -1 -19t-3 -12l-344 -401l-90 72l305 358l-305 338l90 72z" />
<glyph unicode="&#x2044;" horiz-adv-x="12" d="M-336 0h-131l823 1454q10 20 30 37.5t48 17.5q27 0 43.5 -10t26.5 -20z" />
<glyph unicode="&#x205f;" horiz-adv-x="457" />
<glyph unicode="&#x2074;" horiz-adv-x="970" d="M809 956q27 0 44 -11t17 -40q0 -14 -9 -28.5t-13 -18.5h-100v-225h-121v225h-295q-117 0 -162 31t-45 96q0 74 46 147.5t101 133.5q45 51 98.5 96t105.5 78t100.5 51t85.5 18q41 0 61 -11t25 -15v-527h61zM627 1405q-55 -25 -121 -70t-121 -104q-23 -23 -47.5 -51.5 t-45 -58t-32.5 -60.5t-12 -57q0 -31 27.5 -39.5t68.5 -8.5h283v449z" />
<glyph unicode="&#x20ac;" horiz-adv-x="1335" d="M430 481q29 -113 81 -188.5t118.5 -121.5t142.5 -66.5t152 -20.5q104 0 175.5 28.5t112.5 51.5l52 -98q-43 -33 -130 -68t-231 -35q-96 0 -194.5 27.5t-183.5 90t-149.5 161t-94.5 239.5h-172v111h155q-2 25 -3 52.5t-1 55.5q0 63 6 123h-157v111h178q33 133 94 229.5 t142 157.5t177.5 91t198.5 30q68 0 121 -9.5t93 -21.5t66.5 -25.5t39.5 -21.5q35 -23 46 -45.5t11 -38.5q0 -29 -19.5 -53.5t-39.5 -34.5q-35 47 -117 89t-205 42q-74 0 -145.5 -20.5t-133 -66.5t-109.5 -121t-75 -181h561q25 0 41.5 -13.5t16.5 -41.5q0 -18 -5.5 -34 t-9.5 -22h-624q-6 -59 -6 -125q0 -29 1 -55.5t3 -50.5h464q25 0 41.5 -13.5t16.5 -41.5q0 -18 -5 -34t-9 -22h-488z" />
<glyph unicode="&#x2122;" horiz-adv-x="1941" d="M1055 1370q4 -8 20.5 -42t41 -83t53 -106.5t56 -112.5t52.5 -103.5t41 -76.5q25 47 61.5 120.5t74.5 149.5t69.5 138.5t46.5 86.5q12 23 32.5 43.5t61.5 20.5q23 0 41 -9.5t27 -13.5q12 -209 24 -416.5t21 -418.5h-113q-2 51 -6 134t-8 176t-10.5 187.5t-12.5 169.5 l-254 -491h-114q-27 53 -58 116.5t-63.5 130t-66.5 131t-64 120.5q-10 -168 -18.5 -340t-12.5 -334h-117l41 788q2 35 23.5 52.5t50.5 17.5q31 0 50.5 -11.5t29.5 -23.5zM752 1405q23 0 38 -13.5t15 -41.5q0 -16 -7 -33t-12 -25h-325v-745h-119v745h-270q-23 0 -38.5 15.5 t-15.5 44.5q0 16 8.5 30.5t12.5 22.5h713z" />
<glyph unicode="&#x25fc;" horiz-adv-x="1013" d="M0 1014h1014v-1014h-1014v1014z" />
<glyph d="M508 -84q31 -2 64.5 -13.5t63.5 -32t48 -51t18 -73.5q0 -86 -55 -134t-149 -48q-39 0 -72 6t-56.5 14t-38 16.5t-16.5 10.5l41 88q4 -4 42 -21.5t89 -17.5q41 0 68 16.5t27 61.5q0 23 -11.5 38t-28 24.5t-35 13.5t-30.5 4z" />
<glyph d="M651 1157q-43 0 -82 10.5t-73 22.5q-37 12 -70 23.5t-61 11.5q-35 0 -50.5 -20.5t-25.5 -59.5l-111 16q6 33 18.5 68t35 62.5t55 45t80.5 17.5q43 0 82.5 -10.5t74.5 -22.5q37 -12 69 -22.5t60 -10.5q35 0 50.5 19.5t25.5 58.5l113 -16q-6 -35 -19.5 -70t-36 -62.5 t-56.5 -44t-79 -16.5z" />
<glyph d="M307 1143q-43 0 -76.5 32.5t-33.5 71.5q0 41 33.5 74t76.5 33q45 0 78 -33t33 -74q0 -39 -33 -71.5t-78 -32.5zM709 1143q-45 0 -78 32.5t-33 71.5q0 41 33 74t78 33t77.5 -33t32.5 -74q0 -39 -32.5 -71.5t-77.5 -32.5z" />
<glyph d="M823 1190l-55 -70l-258 129l-260 -129l-55 70l200 149q31 23 56.5 41.5t58.5 18.5t58.5 -18.5t56.5 -41.5z" />
<glyph d="M352 1118l-57 88l246 162q25 16 42 23.5t40 7.5q55 0 81.5 -32t26.5 -67z" />
<glyph d="M293 1300q0 35 26.5 67t81.5 32q23 0 40.5 -7.5t41.5 -23.5l246 -162l-57 -88z" />
</font>
</defs>
</svg>
